<?xml version="1.0" standalone="no"?>
<!DOCTYPE svg PUBLIC "-//W3C//DTD SVG 1.1//EN" "http://www.w3.org/Graphics/SVG/1.1/DTD/svg11.dtd" >
<svg xmlns="http://www.w3.org/2000/svg">
<metadata>
This is a custom SVG webfont generated by Font Squirrel.
Copyright   : Copyright c 2006 by Michael DoretAlphabet Soup Type Founders All rights reserved
Designer    : Michael Doret
Foundry     : Michael DoretAlphabet Soup Type Founders
Foundry URL : httpwwwfontbroscom
</metadata>
<defs>
<font id="MetroScriptRegular" horiz-adv-x="520" >
<font-face units-per-em="2048" ascent="1536" descent="-512" />
<missing-glyph horiz-adv-x="337" />
<glyph unicode=" "  horiz-adv-x="337" />
<glyph unicode="&#x09;" horiz-adv-x="337" />
<glyph unicode="&#xa0;" horiz-adv-x="337" />
<glyph unicode="!" horiz-adv-x="423" d="M43 68q0 51 48 95t110 44q33 0 55.5 -17.5t22.5 -50.5q0 -49 -48.5 -94t-109.5 -45q-33 0 -55.5 18.5t-22.5 49.5zM174 313q0 14 6 33l256 893q12 43 62.5 69.5t101.5 26.5q74 0 74 -49q0 -12 -6 -26l-357 -885q-18 -43 -48 -69.5t-58 -26.5q-31 -1 -31 34z" />
<glyph unicode="&#x22;" horiz-adv-x="526" d="M219 1026q0 14 6 35l54 192q10 37 40.5 59.5t63.5 22.5q55 0 55 -47q0 -18 -8 -35l-82 -192q-35 -82 -90 -82q-39 0 -39 47zM444 1026q0 14 7 35l51 192q10 37 41.5 59.5t64.5 22.5q55 0 56 -47q0 -18 -9 -35l-82 -192q-35 -82 -90 -82q-39 0 -39 47z" />
<glyph unicode="#" horiz-adv-x="833" d="M96 800.5q0 20.5 27 43t59 22.5h109l47 135h-133q-35 0 -35 20.5t27.5 42t60.5 21.5h109l51 146q16 45 54 74.5t70.5 29.5t32.5 -32q0 -12 -6 -31l-65 -187h125l49 146q14 45 53 74.5t72 29.5t33 -32q0 -12 -7 -31l-65 -187h137q33 0 33 -20.5t-27.5 -42t-60.5 -21.5 h-111l-47 -135h137q33 0 33 -20.5t-27.5 -43t-60.5 -22.5h-111l-49 -143q-14 -45 -52 -75t-70.5 -30t-32.5 33q0 12 6 31l63 184h-125l-49 -143q-16 -45 -54 -75t-70.5 -30t-32.5 33q0 12 6 31l63 184h-133q-33 0 -33 20.5zM428 866h125l47 135h-125z" />
<glyph unicode="$" horiz-adv-x="608" d="M-39 387q0 45 31 70.5t69 25.5q53 0 54 -37q0 -6 -14.5 -29.5t-14.5 -47.5q0 -57 64 -86l126 364q-43 57 -60 82t-39.5 78t-22.5 102q0 94 75.5 163t219.5 75l45 129q8 25 30.5 42t43 17t20.5 -20q0 -4 -4 -17l-54 -155q147 -27 148 -125q0 -43 -25.5 -70.5t-62.5 -27.5 q-51 0 -51 30q0 12 18 26.5t18 33.5q0 20 -18 39.5t-49 27.5l-119 -346q109 -141 109 -256q0 -119 -88 -195.5t-203 -76.5l-49 -144q-8 -25 -31 -42t-43 -17q-23 0 -23 20q0 4 5 17l59 174q-68 14 -108 55t-48 69.5t-8 51.5zM229 270q66 4 109 46t43 110q0 59 -49 139z M289 903q0 -35 43 -98l94 274q-63 -14 -100 -68.5t-37 -107.5z" />
<glyph unicode="%" horiz-adv-x="1243" d="M100 25q0 8 9 18l929 1255q27 37 90 37q45 0 46 -24q0 -8 -9 -19l-929 -1255q-27 -37 -89 -37q-47 0 -47 25zM113 850q0 190 124.5 336.5t254.5 146.5q37 0 36 -26q0 -18 -28 -31q-125 -51 -190.5 -166t-65.5 -258q0 -145 94 -145q72 0 127 97t55 214q0 61 -18.5 102 t-35.5 59.5t-17 26.5q0 18 20 32.5t49 14.5q55 0 90 -58t35 -128q0 -121 -37 -212t-93 -135t-107.5 -64.5t-94.5 -20.5q-90 0 -144 57.5t-54 157.5zM584 215q0 190 125 336.5t254 146.5q37 0 36 -26q0 -18 -28 -31q-125 -51 -190.5 -166t-65.5 -258q0 -145 94 -145 q72 0 127 97t55 214q0 61 -18.5 102t-35.5 59.5t-17 26.5q0 18 20.5 32.5t48.5 14.5q55 0 90 -58t35 -128q0 -121 -37 -212t-93 -135t-107.5 -64.5t-94.5 -20.5q-90 0 -144 57.5t-54 157.5z" />
<glyph unicode="&#x26;" horiz-adv-x="1032" d="M-74 197q0 221 207 409l45 39q-61 76 -61 193q0 193 166 340q178 158 374 157q104 0 172 -44t68 -120q0 -86 -93 -168.5t-212 -82.5q-90 0 -96 26q0 10 26 17q121 25 176.5 81t55.5 119q0 51 -29 79t-74 28q-147 0 -263 -162t-116 -305q0 -47 15 -86q135 74 239 74 q55 0 90 -25t35 -66q0 -59 -61.5 -103t-188.5 -44q-94 0 -151 33q-158 -164 -158 -332q0 -115 76 -208t205 -93q125 0 217 76.5t92 187.5q0 150 -131 150q-57 0 -111.5 -45.5t-54.5 -114.5q0 -47 29 -92q6 -12 6 -25q0 -29 -45 -29q-63 0 -96 39t-33 93q0 119 121 206 q88 63 280 131q121 43 224.5 113t132.5 137q14 33 30 33q20 0 21 -41v-8q-8 -84 -102.5 -167t-225.5 -138q57 -25 86 -72t29 -82v-35q0 -121 -86 -218t-211 -147t-256 -50q-176 0 -269.5 95t-93.5 247zM334 655q47 -31 94 -30q37 0 62.5 19.5t25.5 41.5q0 31 -33 31 q-51 -1 -149 -62z" />
<glyph unicode="'" horiz-adv-x="301" d="M219 1026q0 14 6 35l54 192q10 37 40.5 59.5t63.5 22.5q55 0 55 -47q0 -18 -8 -35l-82 -192q-35 -82 -90 -82q-39 0 -39 47z" />
<glyph unicode="(" horiz-adv-x="649" d="M51 385q0 178 74 356.5t182.5 306.5t233.5 207.5t225 79.5q43 0 43 -26q0 -16 -27 -29q-248 -111 -401.5 -372t-153.5 -521q0 -164 44 -291t110 -178q37 -29 37 -57q0 -35 -45 -35q-16 0 -31 6q-145 45 -218 196.5t-73 356.5z" />
<glyph unicode=")" horiz-adv-x="649" d="M-145 -147q0 16 28 28q248 113 400.5 373t152.5 520q0 164 -43 291t-110 178q-37 29 -37 57q0 33 43 33q20 0 33 -4q145 -45 217.5 -196.5t72.5 -356.5q0 -178 -73.5 -356t-182 -306t-233.5 -208t-225 -80q-43 0 -43 27z" />
<glyph unicode="*" horiz-adv-x="643" d="M156 791q0 35 45 71l155 131l-149 49q-37 12 -37 43q0 25 25.5 48.5t58.5 23.5q23 0 39 -8l125 -64l49 168q10 37 36.5 59.5t55.5 22.5q41 0 41 -43q0 -20 -8 -39l-66 -161l174 59q20 6 37 6q47 0 47 -41q0 -27 -22.5 -50.5t-63.5 -33.5l-176 -43l58 -123q8 -20 8 -32 q0 -33 -25.5 -58.5t-52.5 -25.5q-35 0 -45 38l-41 142l-137 -139q-41 -41 -84 -41q-47 0 -47 41z" />
<glyph unicode="+" horiz-adv-x="716" d="M47 641q0 23 29.5 49.5t62.5 26.5h176l54 153q14 43 53 74t70 31q35 0 34 -35q0 -10 -6 -29l-67 -194h202q31 0 31 -22.5t-28.5 -49.5t-61.5 -27h-178l-53 -155q-14 -43 -53.5 -74t-69.5 -31q-33 0 -33 33q0 14 6 33l66 194h-203q-31 0 -31 23z" />
<glyph unicode="," horiz-adv-x="423" d="M41 76q0 43 39 78.5t86 35.5q37 0 61.5 -22.5t24.5 -61.5q0 -43 -37 -107.5t-121 -111.5q-6 -4 -14 -4q-16 0 -17 15q0 8 9 16q55 68 63 88q-6 -2 -18 -2q-29 0 -52.5 21.5t-23.5 54.5z" />
<glyph unicode="-" horiz-adv-x="485" d="M-14 323.5q0 22.5 28.5 49t61.5 26.5h286q31 0 31 -22.5t-29.5 -49t-62.5 -26.5h-285q-30 0 -30 22.5z" />
<glyph unicode="." horiz-adv-x="423" d="M43 68q0 51 48 95t110 44q33 0 55.5 -17.5t22.5 -50.5q0 -49 -48.5 -94t-109.5 -45q-33 0 -55.5 18.5t-22.5 49.5z" />
<glyph unicode="/" horiz-adv-x="573" d="M-203 33q0 18 17 41l804 1194q45 68 121 67q47 0 47 -35q0 -14 -16 -40l-805 -1192q-47 -68 -121 -68q-47 0 -47 33z" />
<glyph unicode="0" horiz-adv-x="1114" d="M39 406q0 176 69.5 351t176 299t234.5 201.5t243 77.5q45 0 45 -26q0 -18 -37 -33q-186 -76 -314 -230.5t-180.5 -317.5t-52.5 -325q0 -326 223 -325q158 0 287 194.5t129 460.5q0 225 -143 373q-23 23 -23 41q0 23 30 38t79 15q72 0 126 -66.5t78.5 -152.5t24.5 -166 q0 -176 -44 -320.5t-111.5 -233.5t-153.5 -150.5t-166 -86t-153 -24.5q-182 0 -274.5 113t-92.5 293z" />
<glyph unicode="1" horiz-adv-x="518" d="M-4 35q0 14 6 28l352 1022q-117 -88 -164 -88q-18 0 -30.5 11.5t-12.5 28t52.5 55t124 91t104.5 91.5q51 61 117 61q43 0 43 -37q0 -12 -6 -26l-402 -1168q-14 -45 -58 -74.5t-83 -29.5q-43 0 -43 35z" />
<glyph unicode="2" horiz-adv-x="1003" d="M-78 55q0 133 246 293q403 258 530 392t127 296q0 74 -48 141.5t-156 67.5q-94 0 -169 -70.5t-109 -159.5t-34 -167q0 -49 21.5 -82t43 -50.5t21.5 -27.5q0 -29 -39 -29q-102 0 -160.5 53.5t-58.5 137.5q0 193 165 339t362 146q268 0 342 -211q18 -55 18 -104 q0 -106 -40 -195.5t-143.5 -174.5t-151.5 -116.5t-187 -109.5q-25 -16 -37 -23q-23 -12 -90.5 -51t-101 -59.5t-85 -53t-87 -63.5t-62.5 -61q125 68 311 67q31 0 84 -3t92 -3q158 0 217 39q10 8 25 8q33 0 33 -33q0 -18 -23.5 -67t-46.5 -84q-25 -37 -100 -37 q-35 0 -165 16.5t-218 16.5q-117 0 -223 -25q-41 -8 -54 -8q-49 0 -49 55z" />
<glyph unicode="3" horiz-adv-x="935" d="M-39 260q0 115 68.5 192.5t167.5 77.5q37 0 66.5 -13t29.5 -30q0 -25 -35 -30q-37 -10 -83 -62.5t-46 -130.5q0 -86 45 -135t111 -49q102 0 187 85t126 192.5t41 197.5q0 143 -115 143q-51 0 -88 -23.5t-55.5 -23.5t-32.5 12.5t-14 30.5q0 25 26 51l394 394h-320 q-92 0 -153 -37q-14 -8 -29 -8q-27 0 -27 22q0 39 82 144q35 45 113 45h491q57 0 58 -48q0 -43 -58 -100l-387 -389q14 4 47 4q90 0 166 -61.5t76 -182.5q0 -80 -29.5 -167t-89 -169.5t-165 -137t-238.5 -54.5q-135 0 -232.5 70.5t-97.5 189.5z" />
<glyph unicode="4" horiz-adv-x="1058" d="M-70 379q0 35 39 67q406 344 578 807q29 82 153 82q72 0 72 -37q0 -8 -2 -12q-78 -215 -253 -446.5t-408 -393.5q217 53 393 54q10 0 41.5 -1t54.5 -1l193 555q14 43 58 73.5t81 30.5q43 0 43 -39q0 -16 -4 -26l-205 -590q55 2 95 13t60.5 20.5t28.5 9.5q33 0 33 -29 q0 -51 -63 -143q-25 -37 -140 -37q-47 0 -71 2l-80 -234q-14 -45 -58.5 -74.5t-83.5 -29.5q-43 0 -43 37q0 12 7 26l98 289q-184 16 -291 17q-145 0 -246 -25q-25 -4 -30 -4q-50 0 -50 39z" />
<glyph unicode="5" horiz-adv-x="860" d="M-86 229.5q0 114.5 71.5 171t151.5 56.5q41 0 65.5 -14.5t24.5 -26.5q0 -16 -43 -33q-49 -16 -76.5 -62.5t-27.5 -101.5q0 -59 40 -97t107 -38q96 0 165 48t101.5 125t47 148.5t14.5 141.5q0 104 -46 155.5t-118 51.5q-76 0 -166 -78q-29 -27 -59.5 -27t-30.5 31 q0 14 4 22l205 594q16 39 76 39q33 0 74 -20q74 -41 190 -41q106 0 177 28.5t77 28.5q23 0 23 -22q0 -14 -13 -37q-41 -70 -130 -114t-200 -44q-113 0 -217 45l-122 -356q86 55 184 55q113 0 191.5 -75.5t78.5 -213.5q0 -240 -157.5 -404.5t-391.5 -164.5q-88 0 -179 57.5 t-91 172z" />
<glyph unicode="6" horiz-adv-x="1024" d="M41 385q0 143 56.5 307t156.5 297q123 162 282.5 254t286.5 92q43 0 43 -24q0 -20 -39 -35q-279 -113 -441.5 -337t-162.5 -529q0 -168 56.5 -250t150.5 -82q102 0 176 73.5t105.5 172t31.5 198.5q0 102 -42 160.5t-117 58.5q-117 0 -172 -135q-25 -59 -66 -59 q-31 0 -31 37q0 12 7 30q33 109 125 172.5t198 63.5q115 0 195 -78t80 -225q0 -250 -149.5 -398.5t-352.5 -148.5q-180 0 -278.5 104.5t-98.5 280.5z" />
<glyph unicode="7" horiz-adv-x="894" d="M104 1139q-4 43 72 159q25 37 98 37q37 0 167 -17.5t218 -17.5q111 0 224 27q41 8 53 8q47 0 47 -51q0 -37 -16.5 -80t-54.5 -97t-68.5 -93t-89 -108.5t-84.5 -102.5q-76 -96 -125 -174t-104.5 -225.5t-86.5 -327.5q-8 -49 -33.5 -62.5t-101.5 -13.5q-37 0 -53 2 t-27.5 12.5t-11.5 32.5q0 16 6 47q104 449 381 729q10 10 75.5 77t93.5 95.5t77 81.5t76.5 93t44.5 75q-131 -82 -320 -82q-23 0 -55.5 1t-52.5 1q-219 0 -293 -47q-10 -8 -25 -8q-31 0 -31 29z" />
<glyph unicode="8" horiz-adv-x="956" d="M-68 287q0 111 80 209q82 100 334 194q-43 31 -68.5 53.5t-56.5 78t-31 120.5q0 158 154 275.5t375 117.5q49 0 49 -26q0 -39 -96 -47q-123 -12 -221.5 -83t-98.5 -167q0 -117 187 -248q115 51 169 111.5t54 117.5q0 51 -40 85t-99 34q-25 0 -50 -6q-12 -4 -34 -4 q-43 0 -43 24q0 29 64.5 50.5t121.5 21.5q106 0 173 -57.5t67 -130.5q0 -82 -76 -166q-53 -61 -228 -135q193 -143 193 -310q0 -174 -149.5 -286.5t-366.5 -112.5q-180 0 -271.5 86t-91.5 201zM117 291q0 -88 62.5 -148.5t139.5 -60.5q121 0 202 66.5t108 164.5q8 31 8 62 q0 55 -34 104t-67.5 76t-103.5 74q-49 -20 -77.5 -33.5t-68.5 -37t-70 -50.5t-50 -59q-49 -78 -49 -158z" />
<glyph unicode="9" horiz-adv-x="1024" d="M117 786q0 127 50 248t169 211t285 90q180 0 278 -105.5t98 -283.5q0 -131 -49 -283.5t-133 -275.5q-123 -180 -294 -283.5t-306 -103.5q-43 0 -43 25q0 18 39 34q279 113 440.5 338.5t161.5 532.5q0 162 -56.5 244.5t-150.5 82.5q-98 0 -173 -73.5t-107.5 -173 t-32.5 -197.5q0 -102 42 -160.5t120 -58.5q117 0 170 135q25 59 65 59q31 0 31 -36q0 -20 -4 -31q-33 -109 -125 -173.5t-199 -64.5q-117 0 -196.5 78t-79.5 225z" />
<glyph unicode=":" horiz-adv-x="423" d="M43 74q0 43 37 79.5t88 36.5q35 0 59.5 -20t24.5 -55q0 -43 -40 -79t-87 -36q-35 0 -58.5 20.5t-23.5 53.5zM188 496q0 43 37 79.5t88 36.5q35 0 59.5 -20.5t24.5 -54.5q0 -43 -40 -79t-87 -36q-35 0 -58.5 20.5t-23.5 53.5z" />
<glyph unicode=";" horiz-adv-x="423" d="M72 76q0 43 39 78.5t86 35.5q37 0 61.5 -22.5t24.5 -61.5q0 -43 -37 -107.5t-121 -111.5q-6 -4 -14 -4q-16 0 -17 15q0 8 8 16q55 61 64 88q-6 -2 -16 -2q-29 0 -53.5 20.5t-24.5 55.5zM225 496q0 43 37 79.5t88 36.5q35 0 59.5 -20.5t24.5 -54.5q0 -45 -40 -81t-87 -36 q-35 0 -58.5 21.5t-23.5 54.5z" />
<glyph unicode="&#x3c;" horiz-adv-x="716" d="M41 645q0 25 21.5 51.5t58.5 38.5l584 193q16 4 22 4q20 0 20.5 -20.5t-22.5 -47t-55 -37.5l-490 -159l379 -160q33 -14 33 -49q0 -20 -14.5 -38t-34.5 -18q-6 0 -19 5l-450 190q-33 12 -33 47z" />
<glyph unicode="=" horiz-adv-x="716" d="M14 549q0 23 30 49.5t62 26.5h517q31 0 30 -23q0 -25 -28.5 -51.5t-61.5 -26.5h-516q-33 0 -33 25zM80 733.5q0 22.5 29.5 49t62.5 26.5h516q31 0 31 -22.5t-30 -49t-62 -26.5h-516q-31 0 -31 22.5z" />
<glyph unicode="&#x3e;" horiz-adv-x="716" d="M-20 423.5q0 20.5 23.5 46.5t55.5 38l488 160l-377 159q-33 14 -33 47q0 23 14.5 40.5t34.5 17.5q6 0 19 -4l450 -191q31 -16 31 -49q0 -23 -20.5 -49.5t-57.5 -38.5l-583 -192q-16 -4 -23 -5q-22 0 -22 20.5z" />
<glyph unicode="?" horiz-adv-x="970" d="M135 977q0 156 153.5 257t356.5 101q199 0 303.5 -90t104.5 -225q0 -47 -11.5 -89t-26 -74t-44 -62.5t-50 -50t-62.5 -44t-62.5 -36t-68.5 -34t-64 -30.5q-84 -43 -121 -149l-31 -89q-14 -41 -49 -62t-72 -21q-55 0 -55 40q0 4 4 21l25 70q39 109 87 162t128 96 q141 80 210.5 157.5t69.5 216.5q0 100 -65.5 156.5t-157.5 56.5q-139 0 -230.5 -82.5t-91.5 -191.5q0 -41 22.5 -72.5t57.5 -36.5q39 -4 39 -32q0 -31 -39 -47q-43 -18 -88 -19q-80 0 -126 61.5t-46 141.5zM225 68q0 51 48.5 95t109.5 44q33 0 55.5 -17.5t22.5 -50.5 q0 -49 -48 -94t-110 -45q-33 0 -55.5 18.5t-22.5 49.5z" />
<glyph unicode="@" horiz-adv-x="1146" d="M18 463q0 223 181.5 414.5t472.5 191.5q205 0 313.5 -117.5t108.5 -279.5q0 -178 -129 -307t-238 -129q-104 0 -137 98q-80 -98 -180 -98q-74 0 -126.5 55t-52.5 135q0 158 135.5 293t295.5 135q80 0 132 -33t52 -94q0 -66 -45 -99.5t-82 -33.5q-76 0 -76 35 q0 10 35 31.5t35 58.5q0 57 -84 57q-94 0 -172 -106.5t-78 -214.5q0 -53 21.5 -91t60.5 -38q31 0 67.5 34.5t63.5 94.5l8 22q12 43 52 74t73 31q37 0 37 -37q0 -4 -14.5 -61.5t-14.5 -90.5q0 -59 51 -59q57 0 135 82t78 209q0 137 -89 240.5t-267 103.5 q-221 0 -370.5 -140.5t-149.5 -328.5q0 -190 113.5 -294t275.5 -104q166 0 291 103q23 16 35 16q23 0 22 -24q0 -18 -16 -35q-170 -162 -371 -162q-184 0 -318.5 133t-134.5 330z" />
<glyph unicode="A" horiz-adv-x="1159" d="M-94 834q0 217 206.5 358t471.5 141q152 0 274 -61q133 63 238 63q45 0 45 -30q0 -12 -8.5 -20.5t-25.5 -15.5t-37.5 -13.5t-53.5 -19.5t-64 -28q166 -143 166 -391q0 -143 -55 -303l-107 -307q-14 -47 -14 -92q0 -150 86 -215q18 -14 19 -27q0 -18 -25 -18q-8 0 -12 2 q-100 25 -161 109.5t-61 180.5q0 49 15 86l82 244h-465l-127 -373q-14 -45 -58.5 -74.5t-82.5 -29.5q-43 0 -43 35q0 14 6 28l141 414h-94q-33 0 -33 20.5t27.5 43t60.5 22.5h70l16 47q137 399 457 607q-86 51 -197 51q-102 0 -210.5 -49.5t-189.5 -152.5t-81 -232 q0 -57 23.5 -91t51 -41.5t51 -18.5t23.5 -28q0 -43 -110 -43q-88 0 -151.5 60t-63.5 162zM451 563h462q43 156 43 271q0 190 -112 315q-246 -160 -365 -504z" />
<glyph unicode="B" horiz-adv-x="1071" d="M-109 74q0 100 101.5 155.5t224.5 61.5l264 762q14 43 58.5 73.5t81.5 30.5q43 0 43 -39q0 -16 -5 -26l-284 -824q113 -43 112 -137q0 -35 -19 -57.5t-44 -22.5q-16 0 -23.5 11.5t-8.5 27.5t-14 38t-38 38l-8 -25q-14 -45 -59.5 -74.5t-82.5 -29.5q-43 0 -43 37 q0 12 7 28l39 113q-45 -4 -89.5 -34.5t-44.5 -86.5q0 -154 297 -153q190 0 303 117.5t113 244.5q0 90 -52 141.5t-114 51.5q-4 0 -14 -1t-14 -1q-39 0 -39 26q0 20 32 35q113 51 214.5 177t101.5 272q0 121 -93.5 192.5t-205.5 71.5q-102 0 -211 -49.5t-190 -151.5t-81 -231 q0 -59 24 -93t51.5 -41.5t51 -17.5t23.5 -27q0 -43 -111 -43q-88 0 -150.5 58.5t-62.5 163.5q0 145 100.5 261.5t253 177t322.5 60.5q209 0 333 -90t124 -235q0 -129 -102.5 -254t-237.5 -205q31 -8 61.5 -20.5t71.5 -39t65.5 -73.5t24.5 -109q0 -129 -110.5 -237.5 t-261 -162.5t-289.5 -54q-193 0 -294.5 63.5t-101.5 155.5z" />
<glyph unicode="C" horiz-adv-x="925" d="M-51 281q0 260 177 550.5t435 436.5q119 68 242 67q121 0 204 -68.5t83 -183.5q0 -145 -135.5 -276t-313.5 -131q-109 0 -109 39q0 20 33 28q141 33 243.5 137.5t102.5 256.5q0 127 -102 127q-121 0 -278.5 -151.5t-272.5 -379t-115 -418.5q0 -135 68 -235t203 -100 q98 0 202 49q109 51 173.5 100t136.5 133q6 6 18 22.5t21 24.5q12 18 32 19q23 0 23 -27q0 -25 -23 -49q-6 -8 -20 -25.5t-23 -25.5q-131 -150 -268 -232q-197 -115 -360 -114q-156 0 -271 118q-106 113 -106 308z" />
<glyph unicode="D" horiz-adv-x="1181" d="M-129 74q0 100 100.5 155.5t223.5 61.5l264 762q14 43 58 73.5t81 30.5q43 0 43 -39q0 -16 -4 -26l-285 -824q113 -43 113 -137q0 -35 -19.5 -57.5t-44.5 -22.5q-33 0 -32 35q0 37 -52 80l-8 -25q-14 -45 -59 -74.5t-82 -29.5q-43 0 -43 37q0 12 6 28l39 113 q-45 -4 -89 -34.5t-44 -86.5q0 -154 297 -153q221 0 394 228t224 581q6 43 6 86q0 182 -108.5 307t-284.5 125q-102 0 -210.5 -49.5t-189.5 -151.5t-81 -231q0 -59 23.5 -93t51 -41.5t51 -17.5t23.5 -27q0 -43 -110 -43q-88 0 -151.5 58.5t-63.5 163.5q0 145 100.5 261.5 t254 177t323.5 60.5q246 0 407.5 -146.5t161.5 -381.5q0 -45 -6 -94q-35 -248 -172 -446.5t-325.5 -305t-387.5 -106.5q-193 0 -293 63.5t-100 155.5z" />
<glyph unicode="E" horiz-adv-x="788" d="M-66 643q0 227 244 457q117 109 265.5 172t261.5 63q102 0 170.5 -63.5t68.5 -177.5q0 -156 -130 -287t-310 -131q-47 0 -82 12t-35 29q0 18 39 26q178 41 275.5 149.5t97.5 215.5q0 63 -35 103t-98 40q-104 0 -230.5 -93t-216.5 -239.5t-90 -283.5q0 -115 53 -186 q137 80 254 79q57 0 91 -23.5t34 -66.5q0 -59 -60.5 -102t-187.5 -43q-68 0 -125 18l-2 -2q-66 -96 -65 -188q0 -139 158 -139q96 0 198 47q111 51 175.5 100t135.5 133q6 6 18.5 22.5t20.5 24.5q18 18 33 19q23 0 23 -29q0 -18 -23 -47q-8 -8 -22.5 -25.5t-20.5 -25.5 q-96 -113 -180 -172q-242 -174 -440 -174q-164 0 -230 133q-23 43 -22 104q0 150 127 273l4 4q-142 106 -142 274zM256 387q45 -23 82 -22q39 0 64.5 19t25.5 44q0 29 -35 29q-57 0 -137 -70z" />
<glyph unicode="F" horiz-adv-x="874" d="M-135 905q0 66 27.5 136.5t83 138t158 111.5t235.5 44q129 0 244.5 -28.5t181 -64.5t120 -64.5t76.5 -28.5q12 0 24.5 3t16.5 3q31 0 31 -22.5t-41 -70.5t-90 -48q-43 0 -225 104q0 -16 -5 -26q-92 -266 -182 -529h262q33 0 33 -20.5t-27.5 -42t-60.5 -21.5h-235 l-89 -260q-66 -193 -174 -278.5t-219 -85.5q-41 0 -41 22q0 14 27 27.5t61.5 28t74.5 55.5t61 100l135 391h-97q-33 0 -32.5 20.5t28 42t60.5 21.5h69l168 490q12 39 48 66.5t73 33.5q-201 106 -340 107q-133 0 -221 -73t-88 -220q0 -106 66.5 -182t158.5 -76q45 0 45 -33 q0 -23 -36.5 -42.5t-110.5 -19.5q-115 0 -184.5 79t-69.5 212z" />
<glyph unicode="G" horiz-adv-x="1071" d="M-197 610q0 96 68 168t111 72q18 0 18 -21q0 -12 -13.5 -51t-13.5 -59q0 -109 119 -121q133 283 393 509t414 226q133 0 133 -133q0 -193 -257 -404.5t-556 -297.5q-31 -98 -31 -179q0 -86 44 -130t100 -44q57 0 142 60.5t167 152.5q184 203 229 334q8 23 19 53 q12 37 54 69t85 32q41 0 41 -37q0 -16 -4 -27q-170 -489 -277 -798q106 -6 167 -45t61 -97q0 -31 -25.5 -77t-60.5 -46q-29 0 -29 27q0 6 2 19.5t2 19.5q0 104 -141 123l-6 -19q-66 -193 -181.5 -278.5t-230.5 -85.5q-78 0 -128 41t-50 98q0 109 140.5 191t312.5 114 l147 428q-123 -166 -275.5 -281.5t-267.5 -115.5q-106 0 -163.5 73.5t-57.5 178.5q0 102 35 213q-20 -2 -59 -2q-68 0 -122.5 42t-54.5 105zM260 610q233 47 405.5 227.5t172.5 327.5q0 53 -47 54q-20 0 -52 -13q-74 -31 -232.5 -213t-246.5 -383zM342 -301 q0 -29 21.5 -50.5t48.5 -21.5q2 0 5 1t5 1q88 23 125 129l47 138q-104 -25 -178 -78t-74 -119z" />
<glyph unicode="H" horiz-adv-x="1067" d="M-160 905q0 61 25.5 131t75 139.5t137.5 114.5t198 45q78 0 188.5 -27.5t174.5 -66.5q27 -16 27 -37q0 -16 -4 -28l-211 -613h186q63 0 106 10q109 393 390 666q96 94 178 94q53 0 79.5 -38t26.5 -97q0 -154 -143.5 -349.5t-362.5 -295.5q-76 -252 -75 -420 q0 -174 79 -233q18 -14 19 -27q0 -18 -27 -18q-6 0 -10 2q-98 25 -149.5 129t-51.5 264q0 119 27 244q-66 -14 -145 -15h-156l-129 -375q-16 -45 -60.5 -74.5t-82.5 -29.5q-43 0 -44 37q0 12 7 26l143 416h-94q-33 0 -33 20.5t27.5 42t60.5 21.5h68l211 611q-129 90 -246 90 q-121 0 -200 -85t-79 -212q0 -106 67.5 -182t158.5 -76q45 0 45 -33q0 -23 -37 -42.5t-109 -19.5q-117 0 -186.5 79t-69.5 212zM946 657q160 109 250 277t90 262q0 39 -20 39q-27 0 -81.5 -75t-123.5 -220q-70 -152 -115 -283z" />
<glyph unicode="I" horiz-adv-x="575" d="M-145 672q0 111 61 239.5t176 223.5q121 100 277.5 150t298.5 50q39 0 39 -41q0 -4 -5 -20q-262 -762 -362 -1055q-66 -193 -174.5 -278.5t-218.5 -85.5q-41 0 -41 22q0 20 63 41q43 14 90 61.5t70 108.5l387 1124q-268 0 -403 -161q-117 -137 -117 -310q0 -92 51 -153.5 t115 -61.5q45 0 45 -30q0 -12 -14.5 -27.5t-49 -29t-82.5 -13.5q-88 0 -147 71t-59 175z" />
<glyph unicode="J" horiz-adv-x="655" d="M-285 -336q0 74 75 139.5t173 105.5t205 60l428 1243h-21q-141 0 -261.5 -65.5t-182.5 -188.5q-55 -111 -55 -221q0 -90 51 -150.5t115 -60.5q43 0 43 -30q0 -23 -38 -46.5t-106 -23.5q-88 0 -147.5 70.5t-59.5 175.5q0 98 45.5 204.5t120.5 190.5q113 125 290 196.5 t358 71.5q39 0 38 -41q0 -4 -4 -20l-446 -1290q106 -6 166.5 -45t60.5 -97q0 -31 -25.5 -77t-60.5 -46q-29 0 -28 27l2 4v4q2 10 2 31q0 104 -142 123l-6 -19q-66 -193 -181.5 -278.5t-229.5 -85.5q-76 0 -127.5 41t-51.5 98zM-109 -301q0 -29 20.5 -49.5t47.5 -20.5 q43 0 82 39t55 90l47 138q-104 -25 -178 -78t-74 -119z" />
<glyph unicode="K" horiz-adv-x="999" d="M-145 827q0 213 148.5 360.5t299.5 147.5q117 0 194.5 -79.5t77.5 -219.5q0 -86 -32 -184l-86 -250q68 -14 129 -47q125 115 234.5 293t180.5 383q14 43 63.5 73.5t92.5 30.5q51 0 51 -41q0 -4 -4 -24q-72 -203 -212 -422t-316 -356q86 -72 125 -191q10 -31 28.5 -93.5 t28.5 -93t26.5 -73.5t35 -75t38.5 -58q14 -18 15 -33q0 -20 -29 -20q-168 0 -326 471q-18 49 -49 92q-96 -55 -202 -78l-82 -236q-16 -45 -59.5 -74.5t-82.5 -29.5q-43 0 -43 35q0 14 6 28l93 273q-86 8 -136.5 44t-50.5 83q0 57 76 105t209 48l82 240q31 92 31 172 q0 100 -47.5 160.5t-126.5 60.5q-102 0 -172 -107.5t-70 -209.5q0 -139 76 -139q23 0 51.5 23.5t40.5 23.5q27 0 26 -47q0 -59 -60 -114.5t-134 -55.5q-57 0 -98 47.5t-41 156.5zM133 465q0 -23 24.5 -45.5t63.5 -22.5l53 158q-66 -4 -103.5 -30.5t-37.5 -59.5zM395 428 q51 20 109 61q-35 27 -72 41z" />
<glyph unicode="L" horiz-adv-x="593" d="M-293 -168q0 84 74 126t190 42q61 0 156 -14l227 663q-27 -2 -80 -2q-78 0 -127 35t-49 106q0 82 61.5 150t108.5 68q27 0 27 -29q0 -12 -13.5 -51t-13.5 -60q0 -96 129 -96l31 90q27 76 50.5 128t69.5 123t118.5 124t169.5 84q43 14 98 14q74 0 115 -42t41 -109 q0 -141 -161 -293t-401 -213l-190 -553q-31 -92 -80 -166q4 -2 43 -13.5t65.5 -18.5t77 -19t92.5 -19.5t94 -12.5t99 -5q203 0 291 74q20 16 33 16q18 0 18 -22q0 -6 -4 -19q-78 -203 -379 -203q-63 0 -134 16.5t-119 34t-130 51t-119 48.5q-141 -147 -309 -148 q-72 0 -121 33t-49 82zM-125 -139q0 -45 57 -45q86 0 152 84q-76 20 -123 20q-86 0 -86 -59zM567 786q109 20 188 63.5t117.5 96.5t55 101.5t16.5 91.5q0 100 -86 100q-82 0 -136 -85t-120 -269z" />
<glyph unicode="M" horiz-adv-x="1325" d="M-170 827q0 213 148.5 360.5t300.5 147.5q113 0 188.5 -77.5t75.5 -210.5q0 -88 -37 -195l-123 -356q100 154 235.5 338t198.5 251q68 70 131 70q51 0 51 -45q0 -20 -10 -47l-215 -625q131 195 406 529q70 82 143 82q61 0 61 -52q0 -12 -10 -43l-258 -747 q-14 -37 -14 -96q0 -147 86 -211q16 -14 16 -27q0 -18 -24 -18q-6 0 -11 2q-102 25 -161.5 110.5t-59.5 184.5q0 41 13 81l159 463q18 55 18.5 59.5t-1.5 4.5q-14 0 -113.5 -123t-213.5 -287t-153 -254q-18 -43 -55 -69.5t-74 -26.5q-41 0 -41 37q0 12 7 31l254 737 q18 51 18 57q0 4 -2 4q-31 0 -230.5 -296t-285.5 -474q-23 -45 -58.5 -70.5t-70.5 -25.5q-41 0 -41 37q0 12 6 31l272 790q31 92 31 168q0 100 -47 161.5t-127 61.5q-102 0 -173 -108.5t-71 -208.5q0 -139 76 -139q27 0 54.5 23.5t37.5 23.5q27 0 27 -47q0 -59 -60.5 -114.5 t-134.5 -55.5q-57 0 -98 47.5t-41 156.5z" />
<glyph unicode="N" horiz-adv-x="1009" d="M-170 825q0 213 149.5 361.5t301.5 148.5q115 0 193.5 -79.5t78.5 -217.5q0 -78 -35 -186l-156 -455q111 168 286 391.5t259 298.5q74 68 142 68q53 0 53 -45q0 -20 -12 -51l-293 -852q-14 -37 -15 -96q0 -147 86 -211q18 -14 19 -27q0 -18 -25 -18q-8 0 -12 2 q-100 25 -161.5 109.5t-61.5 183.5q0 47 14 83l205 592q12 31 12 39q0 6 -4 6q-8 0 -176 -196q-260 -303 -422 -584q-23 -39 -62.5 -64.5t-72.5 -25.5q-43 0 -43 37q0 12 6 26l272 795q31 92 31 168q0 100 -47 161.5t-127 61.5q-102 0 -173 -108.5t-71 -208.5 q0 -139 76 -139q27 0 54.5 23.5t37.5 23.5q27 0 27 -47q0 -59 -60.5 -114.5t-134.5 -55.5q-57 0 -98 46.5t-41 155.5z" />
<glyph unicode="O" horiz-adv-x="1064" d="M-45 291q0 186 82 382.5t198.5 338t246.5 232.5t229 91q45 0 45 -28q0 -25 -33 -37q-180 -66 -318.5 -243t-202 -370.5t-63.5 -365.5t57.5 -261t141.5 -89q125 0 267.5 142t225.5 417q55 184 56 319q0 106 -34 164.5t-87 58.5q-78 0 -165 -113.5t-148 -322.5 q-23 -78 -23 -155q0 -61 25 -105l24 -43q0 -29 -35 -29q-86 0 -129 62.5t-43 161.5q0 76 25 149q80 236 229.5 371t294.5 135q106 0 173 -78t67 -227q0 -82 -21 -176q-43 -197 -114.5 -347.5t-149.5 -237.5t-169 -141.5t-164.5 -72.5t-147.5 -18q-166 0 -253 118.5 t-87 317.5z" />
<glyph unicode="P" horiz-adv-x="1044" d="M-131 -123q0 12 9 19.5t30.5 13.5t25.5 8q43 18 89.5 60t68.5 110l332 965q16 43 60 73.5t81 30.5q43 0 43 -37q0 -14 -6 -28q-199 -580 -299 -873q-66 -193 -175.5 -278.5t-217.5 -85.5q-41 -1 -41 22zM-86 836q0 145 100.5 261.5t254 177t323.5 60.5 q227 0 366.5 -103.5t139.5 -295.5q0 -201 -165 -359.5t-349 -158.5q-47 0 -82 10t-47.5 20.5t-12.5 20.5q0 23 23 23q6 0 20.5 -3.5t24.5 -3.5q41 0 90 14.5t104.5 50.5t101.5 87t79 132t37 177q0 150 -113 236t-238 86q-182 0 -331.5 -120t-149.5 -312q0 -59 23.5 -93 t51.5 -41.5t51.5 -17.5t23.5 -27q0 -43 -111 -43q-88 0 -151.5 59t-63.5 163z" />
<glyph unicode="Q" horiz-adv-x="1064" d="M-47 287q0 188 81 384.5t198.5 339t248.5 233.5t230 91q45 0 45 -28q0 -25 -35 -37q-137 -51 -252 -166t-184.5 -255t-107.5 -285.5t-38 -272.5q0 -172 57.5 -261t139.5 -89q45 0 102 22q-178 211 -178 467q0 115 37 217q80 236 230.5 371t295.5 135q104 0 171 -78 t67 -227q0 -82 -21 -176q-117 -535 -430 -723q76 -76 176 -142q18 -14 19 -30q0 -23 -29 -23q-57 0 -133 40t-139 102q-104 -41 -211 -41q-164 0 -252 117.5t-88 314.5zM420 391q0 -203 123 -364q127 86 234.5 324.5t107.5 461.5q0 111 -35 171t-90 60q-80 0 -166 -113.5 t-143 -324.5q-31 -117 -31 -215z" />
<glyph unicode="R" horiz-adv-x="1044" d="M-88 836q0 145 100.5 261.5t253 177t322.5 60.5q229 0 368.5 -104.5t139.5 -298.5q0 -166 -119 -306.5t-279 -189.5q23 -154 79.5 -301t123.5 -229q14 -18 14 -33q0 -20 -26 -20q-94 0 -199.5 177t-138.5 388q-37 2 -63.5 12t-37 19.5t-10.5 17.5q0 25 23 25 q4 0 20.5 -3.5t28.5 -3.5q20 0 31 2q-2 18 -2 54q0 53 33.5 90t62.5 37q12 0 20.5 -3t14.5 -11.5t9 -14.5t4 -20.5t2 -23.5t1 -28v-26q109 63 169.5 173.5t60.5 246.5q0 141 -115 224t-234 83q-182 0 -331.5 -120t-149.5 -312q0 -59 23.5 -93t51 -41.5t51.5 -17.5t24 -27 q0 -43 -113 -43q-88 0 -150.5 59t-62.5 163zM76 35q0 14 6 28l340 990q14 43 58 73.5t81 30.5q43 0 43 -39q0 -16 -4 -26l-340 -988q-16 -45 -60 -74.5t-83 -29.5q-41 0 -41 35z" />
<glyph unicode="S" horiz-adv-x="862" d="M-88 72q0 98 74.5 160.5t187.5 62.5q100 0 155.5 -43t55.5 -105q0 -35 -16.5 -58t-34.5 -23q-27 0 -37 43q-25 102 -113 102q-47 0 -86 -33t-39 -86q0 -68 57.5 -111.5t133.5 -43.5q29 0 67.5 11t81.5 34.5t72 72.5t29 115q0 47 -21.5 91t-87.5 120q-150 176 -196 260 q-76 133 -76 262q0 133 85 235.5t205.5 149.5t249.5 47q135 0 235.5 -77.5t100.5 -192.5q0 -139 -112.5 -242.5t-257.5 -103.5q-86 0 -154 28.5t-68 57.5q0 23 29 22q6 0 46 -8t79 -8q119 0 198 67.5t79 188.5q0 80 -58.5 132t-152.5 52q-49 0 -103.5 -13t-113 -42 t-95.5 -86t-37 -133q0 -88 37 -173t89.5 -153.5t104.5 -133t89 -136.5t37 -139q0 -176 -121 -281.5t-285 -105.5q-141 0 -227 62.5t-86 154.5z" />
<glyph unicode="T" horiz-adv-x="874" d="M-135 905q0 66 27.5 136.5t83 138t158 111.5t235.5 44q135 0 249.5 -28.5t176 -64.5t116 -64.5t82.5 -28.5q10 0 22.5 4t18.5 4q29 0 29 -24q0 -23 -41 -71t-88 -48q-43 0 -225 104q0 -16 -4 -26q-201 -580 -302 -873q-66 -193 -174 -278.5t-219 -85.5q-39 0 -39 22 q0 25 43 33q43 10 98.5 57t82.5 121l331 965q12 37 47 64.5t72 35.5q-201 106 -340 107q-131 0 -220 -73t-89 -220q0 -106 67.5 -182t157.5 -76q45 0 45 -33q0 -23 -36.5 -42.5t-108.5 -19.5q-117 0 -186.5 78t-69.5 213z" />
<glyph unicode="U" horiz-adv-x="1038" d="M-100 795q0 102 86 229t220 219t257 92q201 0 201 -161q0 -57 -23 -115q-45 -121 -135 -302.5t-145.5 -311.5t-55.5 -205q0 -102 68 -103q90 0 233.5 165t220.5 390l125 361q14 43 58.5 73.5t83.5 30.5q43 0 43 -37q0 -14 -7 -28l-305 -885q-14 -39 -14 -96 q0 -147 86 -211q16 -14 16 -27q0 -18 -24 -18q-6 0 -10 2q-102 25 -162 110.5t-60 184.5q0 45 13 81l24 70q-225 -303 -397 -303q-78 0 -124 61.5t-46 139.5q0 18 2 26q14 119 76.5 267.5t149.5 314.5t120 252q18 53 19 90q0 47 -25 72.5t-68 25.5q-111 0 -219 -135 q-115 -143 -114 -276q0 -53 19 -85t48 -32q6 0 16.5 2t14.5 2q23 0 22 -20q0 -31 -39.5 -61t-87.5 -30q-61 0 -111 49.5t-50 131.5z" />
<glyph unicode="V" horiz-adv-x="1001" d="M-150 795q0 100 87.5 228t221.5 220t255 92q201 0 200 -161q0 -57 -22 -115q-45 -119 -137.5 -306.5t-149.5 -322.5t-57 -215q0 -113 98 -113q82 0 211 157t237.5 388.5t131.5 419.5q0 2 1 38t8 61.5t28 52.5q29 37 79 76.5t84 39.5q45 0 45 -78q0 -98 -53 -256.5 t-146 -329.5t-205 -322.5t-243 -250t-243 -98.5q-94 0 -147.5 62.5t-53.5 140.5q0 135 127 403q27 53 76 150.5t84.5 172.5t58.5 132q18 53 18 90q0 47 -24.5 72.5t-67.5 25.5q-111 0 -219 -135q-115 -139 -115 -276q0 -53 19.5 -85t48.5 -32q6 0 16.5 2t14.5 2q25 0 24 -20 q0 -27 -40 -59t-89 -32q-61 0 -111.5 49.5t-50.5 131.5z" />
<glyph unicode="W" horiz-adv-x="1411" d="M-150 795q0 109 90.5 236.5t223.5 215.5t250 88q201 0 200 -161q0 -57 -22 -115q-45 -119 -134 -300t-145.5 -311.5t-56.5 -203.5q0 -117 100 -117q76 0 176 72q-16 51 -16 118q0 168 74 340t177 277.5t187 105.5q39 0 64.5 -35.5t25.5 -80.5q0 -340 -350 -688 q18 -74 51 -104t66 -30q82 0 187.5 158t181 388.5t75.5 418.5q0 10 -3 32.5t-3 37.5q0 47 25 82q25 37 70 76.5t79 39.5q57 0 58 -118q0 -137 -63.5 -342t-163 -400.5t-242 -335t-279.5 -139.5q-111 0 -170 121q-160 -121 -284 -121q-94 0 -147.5 63.5t-53.5 141.5 q0 61 39 182q47 143 157.5 355t151.5 319q18 53 18 90q0 47 -24.5 72.5t-67.5 25.5q-111 0 -219 -135q-115 -143 -115 -274q0 -53 19.5 -86t48.5 -33q6 0 16.5 2t14.5 2q23 0 22 -20q0 -35 -42 -63t-85 -28q-61 0 -111.5 49.5t-50.5 131.5zM676 418q0 -51 2 -74 q113 143 167 305t54 238q0 29 -14 28q-27 0 -76 -74.5t-91 -196.5t-42 -226z" />
<glyph unicode="X" horiz-adv-x="1046" d="M-164 795q0 164 189.5 352t373.5 188q186 0 230 -276l35 -221l321 393q35 43 99.5 73.5t107.5 30.5q37 0 37 -22q0 -18 -23 -43l-518 -602q53 -338 72 -416q18 -82 38.5 -115t51.5 -33t133 93q14 14 32.5 33.5t27 27.5t18.5 14.5t20 6.5q23 0 23 -21q0 -23 -29 -57 q-61 -74 -151 -146q-68 -55 -133 -55q-61 0 -113 47q-39 35 -63.5 100.5t-36 125t-37.5 223.5l-391 -455q-35 -41 -107 -41q-37 0 -37 20q0 12 19 37l491 602q-47 350 -83 470t-122 120q-84 0 -192 -135q-115 -143 -115 -276q0 -53 19.5 -85t48.5 -32q6 0 16 2t14 2 q25 0 25 -20q0 -31 -42 -61t-87 -30q-61 0 -111.5 49.5t-50.5 131.5z" />
<glyph unicode="Y" horiz-adv-x="1017" d="M-109 795q0 98 84 225t218.5 221t261.5 94q201 0 200 -161q0 -57 -22 -115q-45 -121 -135 -302.5t-145.5 -311.5t-55.5 -205q0 -102 70 -103q92 0 234 167t228 417l115 332q14 43 58.5 73.5t82.5 30.5q43 0 43 -37q0 -14 -6 -28q-260 -754 -383 -1108q106 -6 167 -45 t61 -97q0 -35 -27 -79t-59 -44q-29 0 -29 27q0 6 2 19.5t2 19.5q0 104 -141 123l-6 -19q-66 -193 -181.5 -278.5t-230.5 -85.5q-78 0 -128 41t-50 98q0 104 138 187t312 118q37 100 119 340q-227 -309 -399 -309q-78 0 -124 61.5t-46 139.5q0 106 61.5 255.5t156.5 331 t130 273.5q18 53 18 90q0 47 -24.5 72.5t-67.5 25.5q-111 0 -219 -135q-115 -143 -115 -274q0 -53 19.5 -86t48.5 -33q6 0 16.5 2t14.5 2q23 0 22 -20q0 -33 -42 -62t-85 -29q-61 0 -111.5 49.5t-50.5 131.5zM293 -301q0 -29 21.5 -49.5t47.5 -20.5q37 0 75 34t61 95l47 138 q-104 -25 -178 -78t-74 -119z" />
<glyph unicode="Z" horiz-adv-x="901" d="M-106 846q0 150 106 265.5t252.5 169.5t292.5 54q207 0 316.5 -95t109.5 -241q0 -154 -98.5 -296t-215.5 -218q80 -82 80 -211q0 -137 -84 -301q150 -35 150 -129q0 -41 -29 -83t-59 -42q-27 0 -27 27q0 8 1 21.5t1 17.5q0 78 -82 109q-109 -176 -230.5 -273.5 t-240.5 -97.5q-80 0 -131 41t-51 98q0 88 102.5 164t228.5 115t228 43q72 150 72 286q0 86 -37 152q-127 -68 -234 -68q-70 0 -117.5 27t-47.5 72q0 51 72.5 93t170.5 42q106 0 187 -47q82 76 148.5 207t66.5 268q0 123 -75 187.5t-200 64.5q-78 0 -179 -45t-186 -145.5 t-85 -225.5q0 -66 32.5 -97.5t79.5 -31.5q94 0 213 123q20 16 33 16q25 0 25 -24q0 -12 -9 -27q-96 -170 -245 -193q-18 -4 -56 -4q-113 0 -181 68t-68 164zM129 -301q0 -31 22.5 -50.5t51.5 -19.5q53 0 112 60q86 86 162 221q-129 -8 -238.5 -68.5t-109.5 -142.5zM281 461 q0 -35 69 -35q45 0 78 16q29 12 70 37q-49 37 -107 37q-45 0 -77.5 -17.5t-32.5 -37.5z" />
<glyph unicode="[" horiz-adv-x="512" d="M-12 117q0 70 22 137l275 797q49 141 150.5 211.5t207.5 70.5q47 0 47 -22q0 -18 -47 -33q-49 -16 -101.5 -63.5t-74.5 -112.5l-305 -889q-45 -135 -45 -199q0 -78 55 -139q14 -14 14 -27q0 -23 -24 -22q-10 0 -31 10q-68 37 -105.5 112t-37.5 169z" />
<glyph unicode="\" horiz-adv-x="573" d="M227 98v1188q0 51 43 51q31 0 58.5 -29.5t27.5 -70.5v-1186q0 -51 -43 -51q-31 0 -58.5 28.5t-27.5 69.5z" />
<glyph unicode="]" horiz-adv-x="512" d="M-133 -152q0 16 41 29.5t97 56.5t85 125l305 889q43 125 43 199q0 80 -53 139q-14 14 -14 27q0 23 26 22q49 0 110.5 -80.5t61.5 -212.5q0 -68 -22 -135l-275 -796q-49 -143 -151.5 -214t-206.5 -71q-47 -1 -47 22z" />
<glyph unicode="^" horiz-adv-x="610" d="M8 555q0 12 15 33l368 516q39 53 84 53q20 0 36.5 -13.5t16.5 -39.5l13 -516q0 -25 -13.5 -39t-34 -14t-36 14t-15.5 39l-12 432l-309 -432q-37 -53 -86 -53q-27 0 -27 20z" />
<glyph unicode="_" horiz-adv-x="1011" d="M-219 -133.5q0 22.5 28.5 49.5t61.5 27h813q31 0 31 -22.5t-30 -49.5t-62 -27h-811q-31 0 -31 22.5z" />
<glyph unicode="`" d="M362 1571q0 10 5 22l24 74q10 29 33 29q10 0 27 -10l254 -199q18 -16 18 -33q0 -29 -27 -29q-4 0 -20 7l-17 6l-268 98q-29 12 -29 35z" />
<glyph unicode="a" horiz-adv-x="645" d="M-57 186q0 150 130 289t302 139q80 0 131 -31.5t51 -90.5q0 -68 -42 -95.5t-81 -27.5q-74 0 -74 34q0 10 32 25.5t32 52.5q0 55 -82 56q-102 0 -178 -113t-76 -219q0 -47 19.5 -81t56.5 -34q35 0 79 43t68 109q16 43 55.5 72.5t73.5 29.5q37 0 37 -33q0 -12 -6 -30 q-51 -166 -51 -168q0 -18 16 -19q27 0 83 44t126 124q12 16 34.5 16.5t22.5 -20.5q0 -23 -28 -57q-82 -96 -162 -148.5t-135 -52.5q-88 0 -98 82q-72 -82 -162 -82q-72 0 -123 53t-51 133z" />
<glyph unicode="b" horiz-adv-x="735" d="M0 258q0 178 53 379t126 350.5t147.5 248.5t122.5 99q45 0 45 -98q0 -276 -197 -680q49 55 121 55q74 0 124 -60t50 -151q0 -111 -68 -206q16 -6 45 -7q104 0 166 74q12 16 35 16.5t23 -20.5q0 -23 -29 -57q-82 -102 -211 -103q-47 0 -96 17q-121 -115 -254 -115 q-90 0 -146.5 64.5t-56.5 193.5zM145 408q82 160 140.5 372.5t58.5 284.5q0 47 -12 47q-20 0 -63.5 -119t-81.5 -290.5t-42 -294.5zM147 295q12 -205 129 -205q59 0 113 57q-147 92 -147 250q0 41 12 74q-56 -102 -107 -176zM311 410q0 -119 127 -187q23 55 23 127 q0 66 -19.5 114t-58.5 48q-72 0 -72 -102z" />
<glyph unicode="c" horiz-adv-x="534" d="M-55 217q0 154 111.5 275.5t269.5 121.5q68 0 112.5 -35.5t44.5 -91.5q0 -63 -47 -112t-106 -49q-35 0 -56.5 17t-21.5 40q0 12 9 22.5t24 10.5h10q47 0 47 63q0 61 -53 62q-76 0 -135.5 -96.5t-59.5 -198.5q0 -70 41 -108t109 -38q152 0 291 162q12 16 34.5 16.5 t22.5 -20.5q0 -23 -29 -57q-76 -90 -180 -145.5t-205 -55.5q-102 0 -167.5 60.5t-65.5 156.5z" />
<glyph unicode="d" horiz-adv-x="733" d="M-55 207q0 150 121.5 277.5t259.5 127.5q29 0 53 -4q45 182 127 355.5t159.5 271.5t127.5 98q45 0 45 -96q0 -184 -115 -486t-246 -479q8 -164 62 -163q59 0 194 153q12 16 35 16.5t23 -20.5q0 -23 -29 -57q-170 -201 -285 -201q-88 0 -125 113q-109 -113 -223 -113 q-80 0 -132 58.5t-52 148.5zM92 231q0 -66 24.5 -104.5t65.5 -38.5q70 0 154 94q-4 49 -4 76q0 39 4 109q-51 8 -51 34q0 8 32.5 22.5t32.5 53.5q0 45 -51 45q-88 0 -147.5 -89t-59.5 -202zM477 385q66 117 118 281.5t72.5 268t20.5 130.5q0 47 -12 47q-31 0 -93.5 -191.5 t-90.5 -379.5q-15 -90 -15 -156z" />
<glyph unicode="e" horiz-adv-x="534" d="M-55 217q0 150 109.5 273.5t271.5 123.5q72 0 111.5 -36.5t39.5 -88.5q0 -80 -91 -171t-206 -144q-12 -6 -22 -6q-29 0 -29 25q0 20 29 43q172 137 172 249q0 57 -47 58q-66 0 -127.5 -96.5t-61.5 -200.5q0 -70 41 -108t109 -38q152 0 291 162q12 16 34.5 16.5 t22.5 -20.5q0 -23 -29 -57q-78 -92 -181 -146.5t-203.5 -54.5t-167 60.5t-66.5 156.5z" />
<glyph unicode="f" horiz-adv-x="473" d="M-180 -467q0 186 137 703q121 461 304 780t282 319q51 0 51 -98q0 -281 -157.5 -611.5t-321.5 -482.5q-6 -6 -22.5 -20t-24.5 -23q-106 -412 -107 -579q0 -88 45 -88q29 0 55.5 41t45 133t18.5 219q0 51 -5 89t-10.5 56.5t-5.5 24.5q0 29 33 45q6 2 44 21.5t47.5 24.5 t43 22.5t47 26.5t40 26.5t43 31t36 32t35.5 36.5q12 16 34.5 16.5t22.5 -20.5q0 -23 -28 -57q-88 -102 -266 -193q33 -68 32 -182q0 -190 -110.5 -351t-212.5 -161q-125 0 -125 219zM100 225q145 160 244.5 442.5t99.5 397.5q0 43 -12 43q-35 0 -137.5 -274.5t-194.5 -608.5 z" />
<glyph unicode="g" horiz-adv-x="641" d="M-150 -565q0 127 100.5 260t278.5 252l29 114q-68 -61 -141 -61q-72 0 -123 53t-51 133q0 154 134 291t300 137q80 0 131 -30.5t51 -89.5q0 -68 -42 -96.5t-81 -28.5q-76 0 -76 34q0 10 16.5 16.5t33 20t16.5 39.5q0 57 -84 58q-109 0 -181.5 -117t-72.5 -213 q0 -41 17.5 -79t58.5 -38q35 0 78 43t71 109q14 43 54.5 72.5t74.5 29.5q37 0 37 -35q0 -14 -6 -28q-18 -51 -65 -213q158 111 233 194q16 16 35 17q25 0 24 -23q0 -18 -30 -55q-70 -86 -295 -246q-63 -246 -94 -406q-29 -147 -108 -233t-167 -86q-76 0 -116 60.5t-40 144.5 zM-10 -565q0 -59 19.5 -89t45.5 -30q41 0 74 149q10 49 34.5 173t37.5 184q-47 -41 -76 -72q-59 -61 -97 -149t-38 -166z" />
<glyph unicode="h" horiz-adv-x="661" d="M-61 37q0 14 4 26l168 601q72 260 198.5 465.5t198.5 205.5q47 0 47 -98q0 -197 -110.5 -423t-272.5 -413l-6 -28q74 98 183.5 169.5t180.5 71.5q57 0 58 -55q0 -39 -27 -94q-86 -178 -121 -303q-8 -29 -8 -39q0 -29 21 -29q27 0 83 44t126 124q16 16 34 17q25 0 25 -21 q0 -16 -31 -57q-80 -96 -159.5 -148.5t-137.5 -52.5q-111 0 -110 115q0 37 12 75q18 66 47 129.5t47.5 99.5t18.5 46q0 12 -13 12q-39 0 -145.5 -106.5t-126.5 -182.5l-23 -84q-12 -45 -51 -74.5t-74 -29.5q-36 0 -36 37zM207 561q199 299 199 504q0 53 -15 53 q-27 0 -74 -131t-88 -321z" />
<glyph unicode="i" horiz-adv-x="342" d="M-37 115q0 37 12 75q25 84 105 252q10 25 10 29q0 8 -10 8q-2 0 -8 -1t-11 -1q-29 0 -28 21q0 33 69.5 74.5t143.5 41.5q41 0 41 -30q0 -20 -45 -119q-86 -186 -121 -303q-8 -29 -8 -41q0 -27 20 -27q27 0 83 44t126 124q14 16 35 17q25 0 24 -21q0 -25 -30 -57 q-82 -96 -162 -148.5t-135 -52.5q-111 0 -111 115zM156 807q0 45 40 81t87 36q35 0 58.5 -20.5t23.5 -55.5q0 -43 -38 -80t-87 -37q-35 0 -59.5 21.5t-24.5 54.5z" />
<glyph unicode="j" horiz-adv-x="344" d="M-469 -571q0 229 340 475l37 26q76 313 151 512q8 25 9 29q0 8 -9 8q-2 0 -8 -1t-10 -1q-29 0 -29 21q0 31 69 73.5t136 42.5q35 0 35 -32q0 -14 -6 -33q-88 -252 -162 -500q190 129 260 213q12 16 35 17q25 0 24 -23q0 -18 -30 -55q-72 -84 -320 -264q-59 -215 -92 -390 q-29 -145 -106.5 -232t-165.5 -87q-72 0 -115 59.5t-43 141.5zM-328 -573q0 -53 18.5 -83t43.5 -30q47 0 76 151q14 86 67 330q-31 -25 -49 -45q-66 -66 -111 -156.5t-45 -166.5zM129 807q0 45 40 81t87 36q35 0 58.5 -20.5t23.5 -55.5q0 -43 -38 -80t-87 -37 q-35 0 -59.5 21.5t-24.5 54.5z" />
<glyph unicode="k" horiz-adv-x="624" d="M-61 37q0 6 4 26l168 601q72 258 199.5 463.5t199.5 207.5q47 0 47 -98q0 -197 -110.5 -422t-272.5 -412l-10 -43q201 252 342 252q41 0 63.5 -20.5t22.5 -44.5q0 -45 -24.5 -94.5t-59.5 -85t-70 -66.5t-59 -47l-25 -14q-16 -10 -16 -17q0 -2 6 -33q20 -90 74 -90 q68 0 207 162q16 16 34 17q25 0 25 -23q0 -18 -31 -55q-80 -94 -160.5 -147.5t-138.5 -53.5q-74 0 -110.5 69.5t-36.5 123.5q0 39 51 77q160 127 160 191q0 25 -21 24q-10 0 -22 -6q-78 -39 -158 -139t-96 -158l-21 -78q-12 -45 -50 -74.5t-73 -29.5q-38 0 -38 37zM211 567 q197 295 197 498q0 53 -15 53q-27 0 -75 -133t-87 -319z" />
<glyph unicode="l" horiz-adv-x="382" d="M-16 258q0 176 54 377t129 350.5t151.5 249.5t123.5 100t47 -98q0 -184 -114.5 -486t-245.5 -479q8 -164 61 -163q59 0 193 153q16 16 35 17q25 0 24 -23q0 -18 -30 -55q-170 -201 -283 -201q-72 0 -108.5 73.5t-36.5 184.5zM129 385q63 117 115.5 280.5t74 268 t21.5 131.5q0 47 -12 47q-31 0 -92.5 -190.5t-92.5 -380.5q-14 -97 -14 -156z" />
<glyph unicode="m" horiz-adv-x="950" d="M-74 33q0 12 6 30l131 383q8 25 9 29q0 8 -9 8q-2 0 -9 -2t-11 -2q-27 0 -27 21q0 29 63.5 71.5t135.5 42.5q37 0 37 -34q0 -12 -6 -31l-41 -119q68 80 148.5 132t133.5 52q57 0 58 -65q0 -37 -17 -84l-16 -47q74 84 164 140t147 56q55 0 56 -53q0 -35 -29 -96 q-82 -168 -121 -303q-6 -23 -6 -39q0 -29 18 -29q66 0 209 168q16 16 35 17q25 0 25 -23q0 -18 -31 -55q-82 -96 -162 -148.5t-135 -52.5q-109 0 -109 113q-2 27 13 77q18 66 45.5 129.5t46 99.5t18.5 48q0 10 -8 10q-35 0 -130 -101.5t-122 -180.5l-30 -91 q-14 -45 -55.5 -74.5t-76 -29.5t-34.5 33q0 12 6 30l133 388q4 12 4 16q0 10 -10 10q-33 0 -127 -101.5t-121 -176.5l-33 -95q-16 -45 -56 -74.5t-75 -29.5t-35 33z" />
<glyph unicode="n" horiz-adv-x="659" d="M-74 33q0 12 6 30l131 383q8 25 9 29q0 8 -9 8q-2 0 -8 -1t-10 -1q-29 0 -29 21q0 29 64.5 70.5t134.5 41.5q35 0 35 -34q0 -12 -6 -31l-47 -137q76 86 172 144t159 58q59 0 60 -55q0 -33 -29 -94q-80 -164 -121 -303q-6 -23 -6 -39q0 -29 19 -29q66 0 208 168 q16 16 35 17q25 0 25 -23q0 -18 -31 -55q-82 -96 -162 -148.5t-135 -52.5q-109 0 -108 113q0 35 12 77q18 66 46 129.5t46.5 99.5t18.5 46q0 12 -11 12q-39 0 -142 -101.5t-130 -180.5l-31 -91q-14 -45 -55 -74.5t-76 -29.5t-35 33z" />
<glyph unicode="o" horiz-adv-x="641" d="M-49 209q0 141 102 262q78 92 113 92q29 0 29 -35q0 -12 -9 -20q-90 -94 -90 -236q0 -78 34 -130t87 -52q55 0 107 51q-63 39 -102.5 103.5t-39.5 142.5q0 84 47 155.5t131 71.5q61 0 109 -47q63 -61 63 -164q0 -111 -69 -210q10 -2 33 -3q82 0 145 72q12 16 34.5 16.5 t22.5 -20.5q0 -23 -28 -57q-88 -102 -207 -103q-33 0 -70 11q-115 -109 -248 -109q-90 0 -142 59.5t-52 149.5zM254 418q0 -55 35 -108.5t90 -86.5q25 61 24 131q0 66 -20.5 113t-58.5 47q-35 0 -52.5 -28.5t-17.5 -67.5z" />
<glyph unicode="p" horiz-adv-x="692" d="M-311 -651q0 12 6 30l366 1067q8 25 9 29q0 8 -9 8q-2 0 -9 -2t-13 -2q-25 0 -25 21q0 31 63.5 72.5t135.5 41.5q37 0 37 -34q0 -12 -6 -31l-25 -70q113 135 230 135q74 0 115.5 -57t41.5 -127q0 -117 -80 -237q16 -2 29 -3q49 0 75.5 16.5t61.5 55.5q12 16 35 16.5 t23 -20.5q0 -23 -29 -57q-82 -96 -176 -97q-33 0 -76 15q-94 -119 -233 -119q-45 0 -74 21.5t-29 60.5q0 49 40 95t138 46q45 0 109 -12q35 86 35 174q0 123 -82 123q-59 0 -133 -92t-111 -201l-274 -795q-16 -45 -56.5 -74.5t-75 -29.5t-34.5 33zM242 102q0 -37 39 -36 q55 0 106 79q-59 18 -78 19q-33 0 -50 -18.5t-17 -43.5z" />
<glyph unicode="q" horiz-adv-x="645" d="M-57 188q0 147 130 286.5t302 139.5q80 0 131 -31.5t51 -90.5q0 -68 -42 -95.5t-81 -27.5q-74 0 -74 34q0 10 32 25.5t32 52.5q0 55 -82 56q-104 0 -179 -114t-75 -218q0 -47 18.5 -81t55.5 -34q35 0 80 43t69 109q16 43 56.5 72.5t75 29.5t34.5 -33q0 -12 -6 -30 q-219 -649 -219 -789q0 -70 37 -70q51 0 107.5 127t56.5 308q0 61 -7.5 105t-15.5 65.5t-8 25.5q0 29 33 47q94 47 190 162q12 16 34.5 16.5t22.5 -20.5q0 -23 -28 -57q-63 -74 -127 -123q31 -94 31 -191q0 -213 -122 -392t-231 -179q-104 0 -104 162q0 156 133 577 q-68 -57 -135 -57q-72 0 -124 55t-52 135z" />
<glyph unicode="r" horiz-adv-x="563" d="M-29 207q0 20 29 55q25 27 98 125q-82 53 -82 141q0 90 62.5 152.5t130.5 62.5q41 0 65.5 -26.5t24.5 -65.5q0 -76 -57 -164q33 -8 166 -14q53 -4 53 -59q0 -25 -19 -41q-145 -145 -145 -226q0 -47 37 -47q39 0 103.5 45t125.5 117q12 16 35 16.5t23 -20.5q0 -23 -29 -57 q-170 -201 -303 -201q-61 0 -97 40t-36 91q0 96 116 199q-61 6 -118 28q-68 -92 -125 -157q-14 -16 -35 -17q-23 0 -23 23zM141 604q0 -51 39 -86q27 49 27 96q0 53 -25 54q-16 0 -28.5 -19.5t-12.5 -44.5z" />
<glyph unicode="s" horiz-adv-x="532" d="M-29 207q0 20 29 55q39 45 131 164q-41 59 -41 117q0 86 77 155.5t148 69.5q63 0 64 -63q0 -68 -115 -213q2 -2 22.5 -27t24.5 -32t21.5 -29.5t22.5 -33t17.5 -31t16.5 -34.5t8 -32.5t4 -36.5q0 -31 -6 -52q72 2 137 78q12 16 35 16.5t23 -20.5q0 -23 -29 -57 q-94 -113 -192 -113l-19 2q-76 -90 -221 -90q-55 0 -98 27.5t-43 64.5q0 43 57 75t158 32q31 0 71 -4q0 12 -4 24l-7 22q-3 9 -11 23.5t-12 20.5t-16.5 22.5t-16.5 21.5t-19.5 22.5t-17.5 21.5l-141 -172q-12 -16 -33 -17q-25 0 -25 23zM102 100q0 -14 14.5 -25.5 t37.5 -11.5q49 0 96 52q-66 16 -96 16q-52 0 -52 -31zM203 610.5q0 -26.5 18 -61.5q51 72 53 110q0 23 -14 23q-16 0 -36.5 -22.5t-20.5 -49z" />
<glyph unicode="t" horiz-adv-x="382" d="M-82 806.5q0 20.5 27.5 42t60.5 21.5h111q78 195 174 329t151 134q47 0 47 -96q0 -141 -73 -367h254q33 0 32.5 -20.5t-27 -42t-59.5 -21.5h-229q-115 -319 -258 -514q8 -164 61 -163q59 0 193 153q16 16 35 17q25 0 24 -21q0 -25 -30 -57q-170 -201 -285 -201 q-70 0 -106.5 73.5t-36.5 184.5q0 244 100 528h-133q-33 0 -33 20.5zM129 385q88 156 154 401h-88q-66 -239 -66 -401zM219 870h84q37 154 37 195q0 47 -12 47q-37 0 -109 -242z" />
<glyph unicode="u" horiz-adv-x="673" d="M-27 131q0 106 105 315q10 20 10 27q0 8 -10 8q-2 0 -8.5 -1t-10.5 -1q-29 0 -28 21q0 31 66.5 72.5t135.5 41.5q49 0 50 -36q0 -16 -9 -31q-12 -25 -62 -121t-73.5 -157.5t-23.5 -115t26 -53.5q43 0 132 120t163 282q25 51 67 80.5t75 29.5q39 0 38 -32q0 -14 -10 -37 q-162 -373 -162 -420q0 -29 21 -29q61 0 209 168q12 16 34.5 16.5t22.5 -20.5q0 -23 -29 -57q-82 -96 -161.5 -148.5t-137.5 -52.5q-98 0 -98 98q0 35 12 78q-127 -176 -243 -176q-45 0 -73 34t-28 97z" />
<glyph unicode="v" horiz-adv-x="589" d="M0 305q0 145 23 205q16 45 56 74.5t73 29.5q37 0 36 -34q0 -12 -6 -31q-45 -135 -45 -260q0 -94 19 -160q4 -16 12 -16q12 0 52 41t83 98q-66 115 -65 256q0 113 55 174t129 61q57 0 96 -38.5t39 -108.5q0 -131 -131 -317q47 -53 92 -54q39 0 72 37q16 16 35 17 q23 0 22 -21q0 -25 -29 -57q-70 -80 -139 -80q-68 0 -127 65q-158 -186 -262 -186q-33 0 -43 18q-47 72 -47 287zM326 547q0 -92 47 -187q57 100 57 195q0 51 -15.5 79t-35.5 28q-53 0 -53 -115z" />
<glyph unicode="w" horiz-adv-x="872" d="M-2 301q0 141 25 209q16 41 54 72.5t74.5 31.5t36.5 -36q0 -12 -6 -29q-45 -135 -45 -260q0 -51 8.5 -113.5t22.5 -62.5q6 0 25.5 21.5t45 62.5t42.5 84v26q0 137 24 203q18 45 56 74.5t73 29.5q37 0 37 -36q0 -12 -6 -29q-45 -135 -45 -260q0 -51 8 -113.5t23 -62.5 q10 0 51 41t84 98q-66 117 -66 256q0 113 55.5 174t129.5 61q57 0 95 -37.5t38 -105.5q0 -133 -131 -319q45 -55 96 -56q41 0 69 37q14 16 35 17q23 0 23 -20.5t-29 -57.5q-70 -80 -139.5 -80t-128.5 65q-162 -186 -260 -186q-33 0 -43 18q-25 35 -37 115 q-104 -133 -191 -133q-43 0 -55 18q-49 72 -49 283zM608 547q0 -92 47 -187q57 111 58 197q0 51 -15.5 78t-35.5 27q-54 0 -54 -115z" />
<glyph unicode="x" horiz-adv-x="643" d="M-78 25q0 10 15 24l253 246q-12 39 -43 164q-2 16 -18 16q-6 0 -19.5 -8t-25.5 -8q-25 0 -25 24q0 35 56.5 83t101.5 48q41 0 53 -53q31 -123 39 -151l185 178q27 27 73 26q57 0 58 -28q0 -10 -13 -23l-272 -254q29 -84 63 -172q14 -37 41 -37q12 0 29 9q78 45 170 153 q14 16 35 17q25 0 24 -21q0 -25 -30 -57q-82 -96 -162 -148.5t-135 -52.5q-53 0 -80 41q-33 49 -74 158l-186 -174q-25 -25 -68 -25q-45 0 -45 25z" />
<glyph unicode="y" horiz-adv-x="667" d="M-123 -563q0 233 318 467l61 45q31 125 59 229q-127 -178 -243 -178q-45 0 -73 34t-28 97q0 86 105 315q10 25 10 27q0 8 -8 8q-2 0 -8.5 -2t-12.5 -2q-27 0 -26 23q0 27 41 55q82 59 159 59q49 0 50 -39q0 -14 -7 -28q-14 -29 -49 -95.5t-55 -107.5t-37.5 -95t-17.5 -95 q0 -55 28 -56q39 0 117 102.5t148 243.5q39 78 45 86q55 82 122 82q43 0 43 -34q0 -14 -8 -29q-113 -238 -184 -488q184 131 242 201q12 16 34.5 16.5t22.5 -20.5q0 -23 -29 -57q-66 -82 -301 -250q-47 -184 -88 -402q-29 -147 -107.5 -233t-166.5 -86q-76 0 -116 61.5 t-40 145.5zM14 -565q0 -61 21.5 -90t44.5 -29q27 0 42 36t32 113q57 276 73 355q-43 -33 -75 -70q-61 -61 -99.5 -149t-38.5 -166z" />
<glyph unicode="z" horiz-adv-x="651" d="M-139 -560q0 224 317 464q27 20 84 59q1 15 1 30q0 80 -30 120q-18 27 -18 32q0 18 37 43q51 33 113.5 112t62.5 153q0 45 -26.5 66.5t-65.5 21.5q-84 0 -166 -82q-66 -66 -66 -137q0 -29 16.5 -51.5t39.5 -22.5q10 0 29.5 8t25.5 8q20 0 21 -18q0 -27 -43 -52.5 t-93 -25.5q-57 0 -97 35t-40 102q0 86 88 178q127 131 314 131q88 0 146 -36.5t58 -116.5q0 -68 -51 -142q-76 -109 -166 -157q31 -47 43 -109q195 135 256 209q12 16 35 16.5t23 -20.5q0 -23 -29 -57q-68 -80 -279 -232q0 -147 -59 -329.5t-119 -276.5q-37 -57 -94 -96 t-115 -39q-74 0 -113.5 62.5t-39.5 149.5zM-2 -565q0 -59 22.5 -90t45.5 -31q66 0 124 233q43 172 62 310q-80 -66 -119 -107q-59 -61 -97 -149t-38 -166z" />
<glyph unicode="{" d="M-4 117q0 70 22 137l88 256q8 29 -22 29h-49q-33 0 -33 20.5t27.5 42t60.5 21.5h25q31 0 39 22l139 406q51 143 151.5 212.5t217.5 69.5h8q29 0 28 -20q0 -25 -47 -35q-37 -8 -95 -57.5t-81 -118.5l-153 -449q-20 -57 -76 -71q27 -20 26 -58q0 -14 -6 -32l-96 -279 q-45 -135 -45 -199q0 -78 55 -139q12 -12 13 -27q0 -23 -23 -22q-8 0 -20 6q-72 31 -113 110t-41 175z" />
<glyph unicode="|" horiz-adv-x="395" d="M-74 33q0 12 6 30l402 1168q14 43 53 73.5t70 30.5q33 0 32 -32q0 -12 -6 -31l-401 -1168q-16 -45 -54 -74.5t-69 -29.5q-33 0 -33 33z" />
<glyph unicode="}" d="M-225 -152q0 25 47 35q33 8 90 55.5t84 120.5l156 449q18 57 75 74q-27 16 -26 53q0 20 6 35l96 278q43 125 43 199q0 78 -55 139q-12 16 -12 27q0 23 24 22l12 -2q78 -31 119 -110.5t41 -178.5q0 -70 -22 -137l-88 -256q-8 -29 24 -28h49q33 0 33 -20.5t-27.5 -42 t-60.5 -21.5h-27q-31 0 -39 -23l-137 -405q-47 -143 -149.5 -213t-210.5 -72q-45 -1 -45 22z" />
<glyph unicode="~" horiz-adv-x="696" d="M31 637q0 41 70.5 84t119.5 43q66 0 160 -45t127 -45q51 0 113 39q14 8 26 8q25 0 25 -23q0 -41 -70 -84t-119 -43q-63 0 -157.5 45.5t-128.5 45.5q-39 0 -113 -39q-16 -8 -27 -9q-26 0 -26 23z" />
<glyph unicode="&#xa1;" horiz-adv-x="423" d="M-342 -672q0 12 6 27l356 885q18 43 48 69.5t59 26.5q31 0 31 -35q0 -14 -6 -33l-256 -893q-12 -43 -62.5 -69.5t-101.5 -26.5q-74 0 -74 49zM53 475q0 49 48.5 94t109.5 45q33 0 55.5 -18t22.5 -49q0 -51 -48 -95t-110 -44q-33 0 -55.5 17t-22.5 50z" />
<glyph unicode="&#xa2;" horiz-adv-x="655" d="M29 571q0 219 135 389t325 185l46 131q8 25 31.5 42t41.5 17q23 0 23 -20q0 -4 -4 -17l-54 -153q63 -8 112.5 -40t49.5 -85q0 -43 -25.5 -71.5t-62.5 -28.5q-51 0 -51 30q0 16 20 29q16 10 17 31q0 23 -21.5 44t-60.5 27l-248 -723q14 -4 45 -4q66 0 118 44t75 87 q14 27 39 27q8 0 16 -4q10 -6 10 -21q0 -8 -9 -30.5t-32.5 -53t-56.5 -59.5t-86 -48.5t-115 -19.5l-31 3l-75 -220q-8 -25 -32 -42t-44.5 -17t-20.5 18q0 6 5 19l88 258q-168 59 -168 276zM174 565q0 -115 57 -170l234 678q-96 -29 -169 -139.5t-103 -231.5 q-19 -67 -19 -137z" />
<glyph unicode="&#xa3;" horiz-adv-x="888" d="M-111 238q0 63 45.5 92.5t113 29.5t151.5 -22l61 180h-63q-31 0 -31 18.5t25.5 39t56.5 20.5h39q29 76 32 90q-174 16 -174 143q0 66 40 112t77 46q27 0 27 -26q0 -10 -11.5 -39t-11.5 -48q0 -76 86 -96q20 61 40 104.5t54.5 96.5t89 93t126.5 63q35 12 73 12 q117 0 117 -117q0 -109 -120 -217t-290 -127q-14 -35 -30 -90h163q31 0 31 -18.5t-26.5 -39t-55.5 -20.5h-141l-37 -112q-8 -29 -45 -101q158 -59 260.5 -59t159.5 53q14 10 20 10q18 0 19 -20q0 -2 -4 -15q-59 -143 -250 -143q-37 0 -72 9.5t-53.5 17.5t-67.5 34.5 t-69 36.5q-92 -98 -207 -98q-59 0 -103.5 31t-44.5 76zM10 244q0 -39 49 -39q68 0 109 61q-53 23 -94 23q-64 0 -64 -45zM471 768q145 2 209.5 76t64.5 155q0 74 -65 74q-63 0 -106.5 -64.5t-88.5 -199.5q-6 -18 -14 -41z" />
<glyph unicode="&#xa4;" horiz-adv-x="1064" d="M-111 213q0 43 41 72l162 118q-47 80 -47 181q0 109 56.5 217t158.5 190l-39 62q-16 25 -16 59.5t16.5 62t36.5 27.5q18 0 35 -22l76 -117q139 70 274 70q182 0 289 -107l192 143q20 14 35 15q25 0 25 -33q0 -39 -39 -70l-164 -120q51 -82 51 -187q0 -109 -54 -215 t-155 -188l39 -58q16 -25 17 -61q0 -35 -15.5 -60.5t-36 -25.5t-34.5 24l-74 111q-137 -74 -285 -74q-180 0 -293 113l-192 -143q-20 -14 -35 -15q-25 0 -25 31zM190 623q0 -135 78 -225.5t213 -90.5q150 0 280 138.5t130 318.5q0 125 -76 208t-211 83q-154 0 -284 -126 t-130 -306z" />
<glyph unicode="&#xa5;" horiz-adv-x="1015" d="M82 819q0 100 101.5 214t217.5 114q137 0 138 -113q0 -39 -19 -94q-16 -43 -43.5 -111.5t-40 -106.5t-12.5 -65q0 -49 35 -49q57 0 158.5 121t166.5 299q45 119 121 119q33 0 33 -27q0 -4 -4 -20q-129 -375 -221 -641h174q31 0 31 -21q0 -18 -27 -38.5t-55 -20.5h-150 l-12 -35q80 -4 125 -33.5t45 -72.5q0 -27 -21.5 -60t-44.5 -33q-18 0 -18 21q0 4 1 12t1 12q0 76 -113 86q-49 -145 -136 -210.5t-173 -65.5q-59 0 -95 29.5t-36 74.5q0 80 103.5 141.5t232.5 86.5l16 47h-227q-31 0 -31 18q0 20 25.5 41t56.5 21h203l90 262 q-143 -215 -266 -215q-53 0 -86 40t-33 93q0 23 12 63q6 27 90 240q16 45 17 76q0 55 -43 55q-66 0 -126.5 -91t-60.5 -148q0 -35 30 -45.5t30 -22.5q0 -18 -19.5 -35.5t-52.5 -17.5q-35 0 -61.5 28.5t-26.5 77.5zM338 131q0 -23 16.5 -38t36.5 -15q25 0 54.5 24.5 t46.5 71.5l30 92q-78 -18 -131 -55t-53 -80z" />
<glyph unicode="&#xa6;" horiz-adv-x="395" d="M-74 33q0 12 6 30l154 449q14 43 53 73.5t70 30.5q35 0 35 -34q0 -12 -6 -31l-156 -447q-16 -45 -54 -74.5t-69 -29.5q-33 0 -33 33zM174 752q0 12 6 30l154 449q14 43 53 73.5t70 30.5q35 0 35 -35q0 -10 -7 -28l-155 -449q-16 -45 -54 -74.5t-69 -29.5q-33 0 -33 33z " />
<glyph unicode="&#xa7;" horiz-adv-x="929" d="M-139 -47q0 63 62.5 131t191.5 68q45 0 45 -31q0 -27 -45 -33q-119 -16 -119 -119q0 -61 48 -97t138 -36q68 0 157 54.5t89 142.5q0 39 -44 76.5t-107.5 74.5t-126 81t-106.5 112.5t-44 152.5q0 131 85 227.5t224 133.5q-53 57 -53 119q0 152 126 238.5t312 86.5 q135 0 214 -59t79 -141q0 -59 -64.5 -128t-189.5 -69q-47 0 -47 28.5t47 34.5q61 8 89 42t28 77q0 61 -48 97t-136 36q-72 0 -160 -54t-88 -144q0 -37 44 -75t106.5 -75t126 -81t107.5 -113.5t44 -153.5q0 -137 -89 -231.5t-220 -126.5q51 -57 51 -119q0 -147 -123 -236.5 t-313 -89.5q-135 0 -213 58.5t-78 140.5zM160 600q0 -55 18.5 -100t56 -81t70.5 -59.5t86 -56.5l21 -12h16q111 0 184.5 47t73.5 151q0 72 -39 131.5t-80 90t-114 75.5q-14 8 -21 13q-111 0 -188.5 -42t-83.5 -139v-18z" />
<glyph unicode="&#xa8;" d="M313 1513q0 41 41 77t88 36q25 0 44.5 -14.5t19.5 -40.5q0 -37 -42 -75t-87 -38q-27 0 -45.5 15t-18.5 40zM559 1513q0 41 41 77t88 36q25 0 44.5 -14.5t19.5 -40.5q0 -37 -42 -75t-87 -38q-27 0 -45.5 15t-18.5 40z" />
<glyph unicode="&#xa9;" horiz-adv-x="880" d="M131 858q0 186 149.5 331.5t333.5 145.5q143 0 234.5 -90t91.5 -231q0 -188 -146.5 -333.5t-334.5 -145.5q-150 0 -240 96q-88 90 -88 227zM229 872q0 -117 71 -199.5t181 -82.5q154 0 267 143q94 115 94 262q0 123 -71 203t-181 80q-137 0 -249 -122t-112 -284zM315 870 q0 113 95.5 217.5t199.5 104.5q49 0 83 -29.5t34 -79.5q0 -45 -35 -75.5t-78 -30.5q-31 0 -30 20q0 10 17 18.5t34.5 26t17.5 52.5q0 23 -13 35t-30 12q-61 0 -131.5 -89t-70.5 -175q0 -47 31.5 -88t88.5 -41q84 0 179 116q6 10 20 10q20 0 21 -22q0 -10 -9 -25 q-43 -68 -111.5 -108.5t-135.5 -40.5q-80 0 -128.5 57t-48.5 135z" />
<glyph unicode="&#xaa;" horiz-adv-x="600" d="M162 967q0 113 94 225q119 141 276 141q66 0 108 -25.5t42 -72.5q0 -53 -35 -81t-72 -28q-51 0 -51 23q0 14 17 16q47 10 47 60q0 29 -19.5 46t-52.5 17q-45 0 -97 -38t-89 -93q-63 -94 -64 -180q0 -45 21.5 -76t58.5 -31q84 0 133 140q14 43 42 65.5t54 22.5 q35 0 35 -29q0 -10 -2 -16l-35 -105q-12 -29 -12 -47q0 -27 23 -27q18 0 51 23q14 10 27 10q16 0 16 -14q0 -16 -19 -29q-72 -51 -124 -51q-82 0 -89 57q-59 -57 -135 -57q-63 0 -106 44t-43 110z" />
<glyph unicode="&#xab;" horiz-adv-x="768" d="M113 274q0 47 43 80l309 244q12 8 22 8q25 0 25 -22q0 -14 -12 -27l-248 -272l67 -250q4 -16 5 -23q0 -20 -23 -20q-18 0 -33 22l-143 219q-12 18 -12 41zM346 276q0 43 41 78l311 244q12 8 23 8q23 0 22 -22q0 -14 -12 -27l-248 -272l68 -250q4 -16 4 -25q0 -18 -23 -18 q-18 0 -32 22l-142 219q-12 18 -12 43z" />
<glyph unicode="&#xad;" horiz-adv-x="485" d="M-14 323.5q0 22.5 28.5 49t61.5 26.5h286q31 0 31 -22.5t-29.5 -49t-62.5 -26.5h-285q-30 0 -30 22.5z" />
<glyph unicode="&#xae;" horiz-adv-x="880" d="M131 858q0 184 148.5 330.5t334.5 146.5q143 0 234.5 -90t91.5 -231q0 -188 -146.5 -333.5t-334.5 -145.5q-150 0 -240 96q-88 90 -88 227zM231 874q0 -119 70 -201.5t180 -82.5q154 0 267 143q94 115 94 262q0 119 -68.5 201t-183.5 82q-139 0 -249 -122t-110 -282z M328 1028q0 66 73.5 115t167.5 49q86 0 137.5 -40t51.5 -116q0 -68 -42 -119t-102 -73q16 -84 50 -129q6 -10 6 -19q0 -18 -27 -18q-80 0 -106 149l-5 25q0 25 33 35q98 37 103 151q0 51 -31 79t-76 28q-57 0 -106 -35t-49 -82q0 -16 12 -24q16 -8 16 -21q0 -25 -39 -25 q-27 0 -47 18.5t-20 51.5zM356 700q0 4 4 17l125 364q6 20 26.5 32.5t37.5 12.5q27 0 26 -22q0 -10 -2 -17l-124 -364q-16 -45 -64 -45q-29 -1 -29 22z" />
<glyph unicode="&#xaf;" d="M354 1483q0 25 29 50.5t63 25.5h281q31 0 31 -23q0 -25 -29 -50.5t-61 -25.5h-283q-31 0 -31 23z" />
<glyph unicode="&#xb0;" d="M205 1094q0 92 81 167.5t185 75.5q74 0 123 -44t49 -115q0 -92 -81 -167t-183 -75q-74 0 -124 44t-50 114zM319 1116q0 -49 24 -82t65 -33q45 0 84.5 50.5t39.5 113.5q0 43 -22.5 75t-63.5 32q-47 0 -87 -45t-40 -111z" />
<glyph unicode="&#xb2;" horiz-adv-x="696" d="M90 573q0 74 150 177q242 164 313.5 237.5t71.5 157.5q0 61 -32 92t-83 31q-86 0 -132 -80t-46 -148q0 -43 25.5 -64.5t25.5 -29.5q0 -25 -29 -24q-63 0 -100 32.5t-37 87.5q0 119 101.5 206t218.5 87q219 0 219 -192q0 -66 -28 -123t-87 -107.5t-100 -77t-115 -69.5 q-203 -117 -227 -137q70 27 168 26q14 0 34.5 -1t30.5 -1q106 0 150 27q6 4 18 4q27 0 27 -22.5t-45 -104.5q-14 -25 -66 -25q-23 0 -98.5 10.5t-124.5 10.5q-47 0 -101.5 -11.5t-66.5 -11.5q-35 0 -35 43z" />
<glyph unicode="&#xb3;" horiz-adv-x="634" d="M94 696q0 80 49.5 122t98.5 42q63 0 63 -35q0 -12 -24 -22q-27 -10 -49.5 -38t-22.5 -69q0 -49 25.5 -75.5t60.5 -26.5q86 0 143.5 93t57.5 179q0 80 -62 80q-16 0 -37 -8q-41 -20 -47 -20q-12 0 -22.5 9t-10.5 23q0 18 17 35l221 221h-172q-47 0 -88 -20q-12 -6 -21 -6 q-23 0 -22 18q0 33 53 94q23 25 68 25h293q39 0 39 -35q0 -29 -35 -63l-217 -218h8q55 0 104 -35.5t49 -111.5q0 -43 -16 -94t-51 -104.5t-100.5 -88.5t-149.5 -35q-86 0 -144.5 46t-58.5 118z" />
<glyph unicode="&#xb4;" d="M344 1448q0 31 37 53l309 187q10 8 25 8q27 0 26 -29q0 -2 -1 -5t-1 -5l-30 -86q-10 -33 -45 -45l-279 -96q-12 -4 -18 -5q-23 0 -23 23z" />
<glyph unicode="&#xb6;" horiz-adv-x="1030" d="M43 -123q0 25 47 35q41 10 96.5 58t77.5 118l185 530q-37 -4 -64 -4q-115 0 -184.5 79t-69.5 212q0 66 27.5 136.5t83 138t158 111.5t235.5 44q86 0 220 -32.5t208 -67.5q18 -8 18 -31q0 -12 -6 -28q-229 -664 -330 -957q-66 -193 -174 -278.5t-219 -85.5q-39 0 -39 22 q0 25 47 35q41 10 97.5 59t79.5 117q111 336 366 1069q-213 104 -332 105q-133 0 -222 -74t-89 -221q0 -104 64.5 -179t154.5 -79l119 344q14 43 58 73.5t81 30.5q43 0 43 -39q0 -16 -4 -26q-201 -580 -301 -873q-66 -193 -174 -278.5t-219 -85.5q-39 -1 -39 22z" />
<glyph unicode="&#xb7;" horiz-adv-x="305" d="M12 641q0 55 50.5 101t109.5 46q45 0 73.5 -25.5t28.5 -68.5q0 -55 -49 -101t-110 -46q-43 0 -73 26.5t-30 67.5z" />
<glyph unicode="&#xb8;" d="M-74 -193q0 25 23 25q6 0 24.5 -8t38.5 -8q33 0 54.5 18.5t21.5 38.5q0 31 -37 31q-14 0 -30.5 -6.5t-22.5 -6.5q-25 0 -25 21q0 2 4 14l39 117h60l-31 -88q18 6 39 6q35 0 59.5 -19.5t24.5 -58.5q0 -55 -48 -87t-108 -32q-33 0 -59.5 11.5t-26.5 31.5z" />
<glyph unicode="&#xb9;" horiz-adv-x="477" d="M170 561q0 10 4 19q16 45 66.5 191.5t90.5 261t46 130.5q-55 -41 -84 -41q-33 0 -33 31q0 12 14 25q131 96 154 118q39 39 78 39q37 0 37 -30q0 -4 -4 -17l-238 -690q-10 -29 -39 -47.5t-55 -18.5q-37 0 -37 29z" />
<glyph unicode="&#xba;" horiz-adv-x="608" d="M170 985q0 115 94 225q63 76 96 76q18 0 19 -20q0 -10 -8 -17q-100 -82 -101 -223q0 -68 30 -110t89 -42q41 0 80 29t61 78q-66 10 -106.5 62.5t-40.5 121.5q0 74 40 122t97 48q63 0 104.5 -52t41.5 -126q0 -55 -25 -113q18 2 46 8.5t34 6.5q18 0 18 -12q0 -14 -26 -29 q-57 -29 -105 -35q-51 -82 -125.5 -127t-144.5 -45q-74 0 -121 49t-47 125zM430 1186q0 -51 35 -88t88 -49q10 51 10 88q0 49 -23.5 83.5t-54.5 34.5q-55 1 -55 -69z" />
<glyph unicode="&#xbb;" horiz-adv-x="768" d="M-2 10q0 14 12 27l248 272l-68 250q-4 16 -4 25q0 18 23 18q18 0 33 -22l141 -220q12 -18 12 -43q0 -43 -41 -77l-311 -244q-12 -8 -23 -8q-22 -1 -22 22zM229 10q0 14 13 27l247 272l-67 250q-4 16 -4 23q0 20 22 20q18 0 33 -22l143 -220q12 -18 13 -41q0 -47 -43 -79 l-310 -244q-12 -8 -22 -8q-25 -1 -25 22z" />
<glyph unicode="&#xbc;" horiz-adv-x="1187" d="M0 23q0 8 8 18l846 1255q27 39 90 39q43 0 43 -22q0 -10 -6 -19l-846 -1255q-27 -39 -92 -39q-43 0 -43 23zM152 561q0 10 4 19q16 45 66 191.5t90 261t46 130.5q-55 -41 -84 -41q-33 0 -32 31q0 12 14 25q131 96 154 118q39 39 77 39q37 0 37 -30q0 -4 -4 -17l-237 -690 q-10 -29 -39 -47.5t-56 -18.5q-36 0 -36 29zM379 231q0 23 27 45q242 207 339 474q20 53 97 53q49 0 49 -29q0 -6 -17 -47q-109 -258 -344 -426q82 16 144 16h39h67q25 63 61 173t48 141t37.5 48t52.5 17q33 0 33 -28q0 -6 -4 -19q-106 -307 -113 -327q29 4 48.5 9t26.5 8 t13 6t12 3q25 0 25 -24.5t-43 -100.5q-16 -25 -92 -24h-33l-47 -133q-10 -29 -38 -47.5t-52 -18.5q-31 0 -31 27q0 4 4 20q49 145 55 162q-111 8 -161 8q-66 0 -113 -8t-53 -8q-37 -1 -37 30z" />
<glyph unicode="&#xbd;" horiz-adv-x="1269" d="M2 23q0 10 6 18l848 1255q27 39 90 39q41 0 41 -22q0 -10 -6 -19l-846 -1255q-27 -39 -90 -39q-43 0 -43 23zM152 561q0 10 4 19q16 45 66 191.5t90 261t46 130.5q-55 -41 -84 -41q-33 0 -32 31q0 12 14 25q131 96 154 118q39 39 77 39q37 0 37 -30q0 -4 -4 -17 l-237 -690q-10 -29 -39 -47.5t-56 -18.5q-36 0 -36 29zM473 41q0 74 150 176q242 164 313.5 237.5t71.5 157.5q0 61 -32 92t-83 31q-86 0 -132 -80t-46 -147q0 -43 25.5 -64.5t25.5 -29.5q0 -25 -29 -25q-63 0 -100 33t-37 88q0 119 101.5 206t218.5 87q219 0 219 -193 q0 -66 -28 -123t-87 -107t-100 -77t-115 -70q-203 -117 -227 -137q70 27 168 27q16 0 36.5 -1t28.5 -1q106 0 150 26q6 4 18 5q27 0 27 -23t-45 -104q-14 -25 -66 -25q-23 0 -98.5 10t-124.5 10q-47 0 -101.5 -11t-66.5 -11q-35 0 -35 43z" />
<glyph unicode="&#xbe;" horiz-adv-x="1409" d="M94 696q0 80 49.5 122t98.5 42q63 0 63 -35q0 -12 -24 -22q-27 -10 -49.5 -38t-22.5 -69q0 -49 25.5 -75.5t60.5 -26.5q86 0 143.5 93t57.5 179q0 80 -62 80q-16 0 -37 -8q-41 -20 -47 -20q-12 0 -22.5 9t-10.5 23q0 18 17 35l221 221h-172q-47 0 -88 -20q-12 -6 -21 -6 q-23 0 -22 18q0 33 53 94q23 25 68 25h293q39 0 39 -35q0 -29 -35 -63l-217 -218h8q55 0 104 -35.5t49 -111.5q0 -43 -16 -94t-51 -104.5t-100.5 -88.5t-149.5 -35q-86 0 -144.5 46t-58.5 118zM223 23q0 10 6 18l846 1255q27 39 90 39q43 0 43 -22q0 -10 -6 -19l-846 -1255 q-27 -39 -90 -39q-43 0 -43 23zM600 231q0 23 27 45q242 207 340 474q20 53 96 53q49 0 49 -29q0 -6 -16 -47q-109 -258 -344 -426q82 16 143 16h39h67q25 63 61 173t48 141t38 48t52 17q33 0 33 -28q0 -6 -4 -19q-106 -307 -113 -327q29 4 48.5 9t26.5 8t13 6t13 3 q25 0 24.5 -24.5t-43.5 -100.5q-16 -25 -92 -24h-33l-47 -133q-10 -29 -37.5 -47.5t-52.5 -18.5q-31 0 -31 27q0 4 4 20q49 145 56 162q-111 8 -162 8q-66 0 -113 -8t-53 -8q-37 -1 -37 30z" />
<glyph unicode="&#xbf;" horiz-adv-x="641" d="M-328 -406q0 47 11.5 89.5t26 74t44 62t50 50t62.5 44.5t62.5 36t68.5 33.5t64 30.5q84 43 121 150l31 88q14 41 49 62.5t72 21.5q55 0 55 -41q0 -4 -4 -21l-25 -69q-39 -109 -87 -162t-128 -96q-141 -80 -210.5 -158t-69.5 -217q0 -100 65.5 -156.5t157.5 -56.5 q139 0 230.5 83t91.5 191q0 41 -22.5 73t-57.5 36q-39 4 -39 33q0 31 39 47q43 18 88 18q80 0 126 -61.5t46 -140.5q0 -156 -153.5 -257.5t-356.5 -101.5q-199 0 -303.5 90t-104.5 225zM264 475q0 49 48 94t110 45q33 0 55.5 -18t22.5 -49q0 -51 -48.5 -95t-109.5 -44 q-33 0 -55.5 17t-22.5 50z" />
<glyph unicode="&#xc0;" horiz-adv-x="1159" d="M-94 834q0 217 206.5 358t471.5 141q152 0 274 -61q133 63 238 63q45 0 45 -30q0 -12 -8.5 -20.5t-25.5 -15.5t-37.5 -13.5t-53.5 -19.5t-64 -28q166 -143 166 -391q0 -143 -55 -303l-107 -307q-14 -47 -14 -92q0 -150 86 -215q18 -14 19 -27q0 -18 -25 -18q-8 0 -12 2 q-100 25 -161 109.5t-61 180.5q0 49 15 86l82 244h-465l-127 -373q-14 -45 -58.5 -74.5t-82.5 -29.5q-43 0 -43 35q0 14 6 28l141 414h-94q-33 0 -33 20.5t27.5 43t60.5 22.5h70l16 47q137 399 457 607q-86 51 -197 51q-102 0 -210.5 -49.5t-189.5 -152.5t-81 -232 q0 -57 23.5 -91t51 -41.5t51 -18.5t23.5 -28q0 -43 -110 -43q-88 0 -151.5 60t-63.5 162zM451 563h462q43 156 43 271q0 190 -112 315q-246 -160 -365 -504zM754 1571q0 10 4 22l24 74q10 29 33 29q10 0 27 -10l254 -199q18 -16 18 -33q0 -29 -27 -29q-4 0 -20 7l-16 6 l-269 98q-28 12 -28 35z" />
<glyph unicode="&#xc1;" horiz-adv-x="1159" d="M-94 834q0 217 206.5 358t471.5 141q152 0 274 -61q133 63 238 63q45 0 45 -30q0 -12 -8.5 -20.5t-25.5 -15.5t-37.5 -13.5t-53.5 -19.5t-64 -28q166 -143 166 -391q0 -143 -55 -303l-107 -307q-14 -47 -14 -92q0 -150 86 -215q18 -14 19 -27q0 -18 -25 -18q-8 0 -12 2 q-100 25 -161 109.5t-61 180.5q0 49 15 86l82 244h-465l-127 -373q-14 -45 -58.5 -74.5t-82.5 -29.5q-43 0 -43 35q0 14 6 28l141 414h-94q-33 0 -33 20.5t27.5 43t60.5 22.5h70l16 47q137 399 457 607q-86 51 -197 51q-102 0 -210.5 -49.5t-189.5 -152.5t-81 -232 q0 -57 23.5 -91t51 -41.5t51 -18.5t23.5 -28q0 -43 -110 -43q-88 0 -151.5 60t-63.5 162zM451 563h462q43 156 43 271q0 190 -112 315q-246 -160 -365 -504zM735 1448q0 31 37 53l309 187q10 8 25 8q27 0 27 -29q0 -2 -1.5 -5t-1.5 -5l-30 -86q-10 -33 -45 -45l-279 -96 q-12 -4 -18 -5q-23 0 -23 23z" />
<glyph unicode="&#xc2;" horiz-adv-x="1159" d="M-94 834q0 217 206.5 358t471.5 141q152 0 274 -61q133 63 238 63q45 0 45 -30q0 -12 -8.5 -20.5t-25.5 -15.5t-37.5 -13.5t-53.5 -19.5t-64 -28q166 -143 166 -391q0 -143 -55 -303l-107 -307q-14 -47 -14 -92q0 -150 86 -215q18 -14 19 -27q0 -18 -25 -18q-8 0 -12 2 q-100 25 -161 109.5t-61 180.5q0 49 15 86l82 244h-465l-127 -373q-14 -45 -58.5 -74.5t-82.5 -29.5q-43 0 -43 35q0 14 6 28l141 414h-94q-33 0 -33 20.5t27.5 43t60.5 22.5h70l16 47q137 399 457 607q-86 51 -197 51q-102 0 -210.5 -49.5t-189.5 -152.5t-81 -232 q0 -57 23.5 -91t51 -41.5t51 -18.5t23.5 -28q0 -43 -110 -43q-88 0 -151.5 60t-63.5 162zM451 563h462q43 156 43 271q0 190 -112 315q-246 -160 -365 -504zM694 1448q0 23 25 43l227 182q31 23 53.5 23t34.5 -27l80 -196q4 -12 4 -17q0 -31 -26 -31q-12 0 -31 19l-103 104 l-219 -114q-12 -6 -22 -7q-23 1 -23 21z" />
<glyph unicode="&#xc3;" horiz-adv-x="1159" d="M-94 834q0 217 206.5 358t471.5 141q152 0 274 -61q133 63 238 63q45 0 45 -30q0 -12 -8.5 -20.5t-25.5 -15.5t-37.5 -13.5t-53.5 -19.5t-64 -28q166 -143 166 -391q0 -143 -55 -303l-107 -307q-14 -47 -14 -92q0 -150 86 -215q18 -14 19 -27q0 -18 -25 -18q-8 0 -12 2 q-100 25 -161 109.5t-61 180.5q0 49 15 86l82 244h-465l-127 -373q-14 -45 -58.5 -74.5t-82.5 -29.5q-43 0 -43 35q0 14 6 28l141 414h-94q-33 0 -33 20.5t27.5 43t60.5 22.5h70l16 47q137 399 457 607q-86 51 -197 51q-102 0 -210.5 -49.5t-189.5 -152.5t-81 -232 q0 -57 23.5 -91t51 -41.5t51 -18.5t23.5 -28q0 -43 -110 -43q-88 0 -151.5 60t-63.5 162zM451 563h462q43 156 43 271q0 190 -112 315q-246 -160 -365 -504zM725 1487q0 16 10 31q47 76 113 75q33 0 96.5 -40t83.5 -40q27 0 47 25q12 14 31 14q23 0 22 -20q0 -23 -34.5 -64 t-85.5 -41q-33 0 -96.5 39t-82.5 39q-27 0 -49 -24q-12 -14 -30 -15q-25 1 -25 21z" />
<glyph unicode="&#xc4;" horiz-adv-x="1159" d="M-94 834q0 217 206.5 358t471.5 141q152 0 274 -61q133 63 238 63q45 0 45 -30q0 -12 -8.5 -20.5t-25.5 -15.5t-37.5 -13.5t-53.5 -19.5t-64 -28q166 -143 166 -391q0 -143 -55 -303l-107 -307q-14 -47 -14 -92q0 -150 86 -215q18 -14 19 -27q0 -18 -25 -18q-8 0 -12 2 q-100 25 -161 109.5t-61 180.5q0 49 15 86l82 244h-465l-127 -373q-14 -45 -58.5 -74.5t-82.5 -29.5q-43 0 -43 35q0 14 6 28l141 414h-94q-33 0 -33 20.5t27.5 43t60.5 22.5h70l16 47q137 399 457 607q-86 51 -197 51q-102 0 -210.5 -49.5t-189.5 -152.5t-81 -232 q0 -57 23.5 -91t51 -41.5t51 -18.5t23.5 -28q0 -43 -110 -43q-88 0 -151.5 60t-63.5 162zM451 563h462q43 156 43 271q0 190 -112 315q-246 -160 -365 -504zM705 1513q0 41 40.5 77t88.5 36q25 0 44 -14.5t19 -40.5q0 -37 -42 -75t-87 -38q-27 0 -45 15t-18 40zM950 1513 q0 41 41 77t88 36q25 0 44.5 -14.5t19.5 -40.5q0 -37 -42 -75t-87 -38q-27 0 -45.5 15t-18.5 40z" />
<glyph unicode="&#xc5;" horiz-adv-x="1159" d="M-94 834q0 217 206.5 358t471.5 141q152 0 274 -61q133 63 238 63q45 0 45 -30q0 -12 -8.5 -20.5t-25.5 -15.5t-37.5 -13.5t-53.5 -19.5t-64 -28q166 -143 166 -391q0 -143 -55 -303l-107 -307q-14 -47 -14 -92q0 -150 86 -215q18 -14 19 -27q0 -18 -25 -18q-8 0 -12 2 q-100 25 -161 109.5t-61 180.5q0 49 15 86l82 244h-465l-127 -373q-14 -45 -58.5 -74.5t-82.5 -29.5q-43 0 -43 35q0 14 6 28l141 414h-94q-33 0 -33 20.5t27.5 43t60.5 22.5h70l16 47q137 399 457 607q-86 51 -197 51q-102 0 -210.5 -49.5t-189.5 -152.5t-81 -232 q0 -57 23.5 -91t51 -41.5t51 -18.5t23.5 -28q0 -43 -110 -43q-88 0 -151.5 60t-63.5 162zM451 563h462q43 156 43 271q0 190 -112 315q-246 -160 -365 -504zM803 1530q0 66 59.5 122t134.5 56q53 0 90 -31.5t37 -85.5q0 -68 -60 -123t-134 -55q-53 0 -90 33t-37 84z M897 1548q0 -31 15.5 -51t39.5 -20q27 0 52.5 30.5t25.5 69.5q0 68 -55 68q-29 0 -53.5 -29t-24.5 -68z" />
<glyph unicode="&#xc6;" horiz-adv-x="1751" d="M-92 -123q0 25 47 35q41 10 96 59t78 117l135 391h-98q-33 0 -33 20.5t27.5 42t60.5 21.5h72l16 47q135 395 451 602q-82 55 -193 56q-102 0 -210.5 -49.5t-189.5 -151.5t-81 -231q0 -125 115 -148q35 -6 35 -31q0 -43 -111 -43q-88 0 -151.5 58.5t-63.5 163.5 q0 145 100.5 261.5t254 177t323.5 60.5q160 0 272 -65q133 66 242 65q47 0 47 -30q0 -25 -35 -35q-66 -20 -168 -68q86 -86 111 -221q123 154 275.5 254t295.5 100q121 0 204 -68.5t83 -185.5q0 -145 -134 -275t-313 -130q-47 0 -81.5 12t-34.5 29q0 18 39 26 q141 33 243.5 137.5t102.5 256.5q0 127 -103 127q-147 0 -341.5 -220.5t-278.5 -480.5h418q33 0 32.5 -20.5t-28 -42t-60.5 -21.5h-387q-20 -80 -20 -164q0 -135 67.5 -235t202.5 -100q98 0 203 49q98 45 165.5 96t143.5 137q6 6 18.5 22.5t20.5 24.5q20 20 33 21 q23 0 22 -31q0 -18 -22 -47q-8 -8 -22.5 -25.5t-20.5 -25.5q-156 -182 -344 -273q-152 -74 -285 -73q-172 0 -287 137q-90 106 -90 291q0 92 25 196h-369l-90 -260q-66 -193 -174.5 -279.5t-218.5 -84.5q-39 -1 -39 22zM459 563h364q55 172 60 187q18 78 18 151 q0 139 -67 238q-225 -154 -347 -494z" />
<glyph unicode="&#xc7;" horiz-adv-x="925" d="M-51 281q0 260 177 550.5t435 436.5q119 68 242 67q121 0 204 -68.5t83 -183.5q0 -145 -135.5 -276t-313.5 -131q-109 0 -109 39q0 20 33 28q141 33 243.5 137.5t102.5 256.5q0 127 -102 127q-121 0 -278.5 -151.5t-272.5 -379t-115 -418.5q0 -135 68 -235t203 -100 q98 0 202 49q109 51 172.5 99t137.5 134q6 6 18 22.5t21 24.5q12 18 32 19q23 0 23 -27q0 -25 -23 -49q-6 -8 -20 -25.5t-23 -25.5q-131 -150 -268 -232q-184 -106 -336 -114l-14 -45q18 6 39 6q35 0 59.5 -19.5t24.5 -58.5q0 -55 -48.5 -87t-107.5 -32q-33 0 -59.5 11.5 t-26.5 31.5q0 25 23 25q6 0 24.5 -8.5t38.5 -8.5q33 0 54.5 18.5t21.5 39.5q0 31 -37 30q-14 0 -30.5 -6t-22.5 -6q-25 0 -25 21q0 2 4 14l25 76q-133 12 -238 116q-106 113 -106 308z" />
<glyph unicode="&#xc8;" horiz-adv-x="788" d="M-66 643q0 227 244 457q117 109 265.5 172t261.5 63q102 0 170.5 -63.5t68.5 -177.5q0 -156 -130 -287t-310 -131q-47 0 -82 12t-35 29q0 18 39 26q178 41 275.5 149.5t97.5 215.5q0 63 -35 103t-98 40q-104 0 -230.5 -93t-216.5 -239.5t-90 -283.5q0 -115 53 -186 q137 80 254 79q57 0 91 -23.5t34 -66.5q0 -59 -60.5 -102t-187.5 -43q-68 0 -125 18l-2 -2q-66 -96 -65 -188q0 -139 158 -139q96 0 198 47q111 51 175.5 100t135.5 133q6 6 18.5 22.5t20.5 24.5q18 18 33 19q23 0 23 -29q0 -18 -23 -47q-8 -8 -22.5 -25.5t-20.5 -25.5 q-96 -113 -180 -172q-242 -174 -440 -174q-164 0 -230 133q-23 43 -22 104q0 150 127 273l4 4q-142 106 -142 274zM256 387q45 -23 82 -22q39 0 64.5 19t25.5 44q0 29 -35 29q-57 0 -137 -70zM571 1571q0 10 4 22l25 74q10 29 33 29q10 0 26 -10l254 -199q18 -16 19 -33 q0 -29 -27 -29q-4 0 -20 7l-17 6l-268 98q-29 12 -29 35z" />
<glyph unicode="&#xc9;" horiz-adv-x="788" d="M-66 643q0 227 244 457q117 109 265.5 172t261.5 63q102 0 170.5 -63.5t68.5 -177.5q0 -156 -130 -287t-310 -131q-47 0 -82 12t-35 29q0 18 39 26q178 41 275.5 149.5t97.5 215.5q0 63 -35 103t-98 40q-104 0 -230.5 -93t-216.5 -239.5t-90 -283.5q0 -115 53 -186 q137 80 254 79q57 0 91 -23.5t34 -66.5q0 -59 -60.5 -102t-187.5 -43q-68 0 -125 18l-2 -2q-66 -96 -65 -188q0 -139 158 -139q96 0 198 47q111 51 175.5 100t135.5 133q6 6 18.5 22.5t20.5 24.5q18 18 33 19q23 0 23 -29q0 -18 -23 -47q-8 -8 -22.5 -25.5t-20.5 -25.5 q-96 -113 -180 -172q-242 -174 -440 -174q-164 0 -230 133q-23 43 -22 104q0 150 127 273l4 4q-142 106 -142 274zM256 387q45 -23 82 -22q39 0 64.5 19t25.5 44q0 29 -35 29q-57 0 -137 -70zM553 1448q0 31 37 53l309 187q10 8 25 8q27 0 26 -29q0 -2 -1 -5t-1 -5l-30 -86 q-10 -33 -46 -45l-278 -96q-12 -4 -19 -5q-22 0 -22 23z" />
<glyph unicode="&#xca;" horiz-adv-x="788" d="M-66 643q0 227 244 457q117 109 265.5 172t261.5 63q102 0 170.5 -63.5t68.5 -177.5q0 -156 -130 -287t-310 -131q-47 0 -82 12t-35 29q0 18 39 26q178 41 275.5 149.5t97.5 215.5q0 63 -35 103t-98 40q-104 0 -230.5 -93t-216.5 -239.5t-90 -283.5q0 -115 53 -186 q137 80 254 79q57 0 91 -23.5t34 -66.5q0 -59 -60.5 -102t-187.5 -43q-68 0 -125 18l-2 -2q-66 -96 -65 -188q0 -139 158 -139q96 0 198 47q111 51 175.5 100t135.5 133q6 6 18.5 22.5t20.5 24.5q18 18 33 19q23 0 23 -29q0 -18 -23 -47q-8 -8 -22.5 -25.5t-20.5 -25.5 q-96 -113 -180 -172q-242 -174 -440 -174q-164 0 -230 133q-23 43 -22 104q0 150 127 273l4 4q-142 106 -142 274zM256 387q45 -23 82 -22q39 0 64.5 19t25.5 44q0 29 -35 29q-57 0 -137 -70zM512 1448q0 23 25 43l227 182q31 23 53.5 23t34.5 -27l80 -196q4 -12 4 -17 q0 -31 -27 -31q-12 0 -30 19l-103 104l-219 -114q-12 -6 -22 -7q-23 1 -23 21z" />
<glyph unicode="&#xcb;" horiz-adv-x="788" d="M-66 643q0 227 244 457q117 109 265.5 172t261.5 63q102 0 170.5 -63.5t68.5 -177.5q0 -156 -130 -287t-310 -131q-47 0 -82 12t-35 29q0 18 39 26q178 41 275.5 149.5t97.5 215.5q0 63 -35 103t-98 40q-104 0 -230.5 -93t-216.5 -239.5t-90 -283.5q0 -115 53 -186 q137 80 254 79q57 0 91 -23.5t34 -66.5q0 -59 -60.5 -102t-187.5 -43q-68 0 -125 18l-2 -2q-66 -96 -65 -188q0 -139 158 -139q96 0 198 47q111 51 175.5 100t135.5 133q6 6 18.5 22.5t20.5 24.5q18 18 33 19q23 0 23 -29q0 -18 -23 -47q-8 -8 -22.5 -25.5t-20.5 -25.5 q-96 -113 -180 -172q-242 -174 -440 -174q-164 0 -230 133q-23 43 -22 104q0 150 127 273l4 4q-142 106 -142 274zM256 387q45 -23 82 -22q39 0 64.5 19t25.5 44q0 29 -35 29q-57 0 -137 -70zM522 1513q0 41 41 77t88 36q25 0 44.5 -14.5t19.5 -40.5q0 -37 -42 -75t-87 -38 q-27 0 -45.5 15t-18.5 40zM768 1513q0 41 41 77t88 36q25 0 44.5 -14.5t19.5 -40.5q0 -37 -42 -75t-88 -38q-27 0 -45 15t-18 40z" />
<glyph unicode="&#xcc;" horiz-adv-x="575" d="M-145 672q0 111 61 239.5t176 223.5q121 100 277.5 150t298.5 50q39 0 39 -41q0 -4 -5 -20q-262 -762 -362 -1055q-66 -193 -174.5 -278.5t-218.5 -85.5q-41 0 -41 22q0 20 63 41q43 14 90 61.5t70 108.5l387 1124q-268 0 -403 -161q-117 -137 -117 -310q0 -92 51 -153.5 t115 -61.5q45 0 45 -30q0 -12 -14.5 -27.5t-49 -29t-82.5 -13.5q-88 0 -147 71t-59 175zM512 1571q0 10 4 22l25 74q10 29 32 29q10 0 27 -10l254 -199q18 -16 18 -33q0 -29 -26 -29q-4 0 -21 7l-16 6l-268 98q-29 12 -29 35z" />
<glyph unicode="&#xcd;" horiz-adv-x="575" d="M-145 672q0 111 61 239.5t176 223.5q121 100 277.5 150t298.5 50q39 0 39 -41q0 -4 -5 -20q-262 -762 -362 -1055q-66 -193 -174.5 -278.5t-218.5 -85.5q-41 0 -41 22q0 20 63 41q43 14 90 61.5t70 108.5l387 1124q-268 0 -403 -161q-117 -137 -117 -310q0 -92 51 -153.5 t115 -61.5q45 0 45 -30q0 -12 -14.5 -27.5t-49 -29t-82.5 -13.5q-88 0 -147 71t-59 175zM494 1448q0 31 36 53l310 187q10 8 24 8q27 0 27 -29q0 -2 -1 -5t-1 -5l-31 -86q-10 -33 -45 -45l-278 -96q-12 -4 -19 -5q-22 0 -22 23z" />
<glyph unicode="&#xce;" horiz-adv-x="575" d="M-145 672q0 111 61 239.5t176 223.5q121 100 277.5 150t298.5 50q39 0 39 -41q0 -4 -5 -20q-262 -762 -362 -1055q-66 -193 -174.5 -278.5t-218.5 -85.5q-41 0 -41 22q0 20 63 41q43 14 90 61.5t70 108.5l387 1124q-268 0 -403 -161q-117 -137 -117 -310q0 -92 51 -153.5 t115 -61.5q45 0 45 -30q0 -12 -14.5 -27.5t-49 -29t-82.5 -13.5q-88 0 -147 71t-59 175zM453 1448q0 23 24 43l228 182q31 23 53 23t35 -27l79 -196q4 -12 5 -17q0 -31 -27 -31q-12 0 -31 19l-102 104l-219 -114q-12 -6 -23 -7q-22 1 -22 21z" />
<glyph unicode="&#xcf;" horiz-adv-x="575" d="M-145 672q0 111 61 239.5t176 223.5q121 100 277.5 150t298.5 50q39 0 39 -41q0 -4 -5 -20q-262 -762 -362 -1055q-66 -193 -174.5 -278.5t-218.5 -85.5q-41 0 -41 22q0 20 63 41q43 14 90 61.5t70 108.5l387 1124q-268 0 -403 -161q-117 -137 -117 -310q0 -92 51 -153.5 t115 -61.5q45 0 45 -30q0 -12 -14.5 -27.5t-49 -29t-82.5 -13.5q-88 0 -147 71t-59 175zM463 1513q0 41 41 77t88 36q25 0 44 -14.5t19 -40.5q0 -37 -42 -75t-87 -38q-27 0 -45 15t-18 40zM709 1513q0 41 41 77t88 36q25 0 44 -14.5t19 -40.5q0 -37 -42 -75t-87 -38 q-27 0 -45 15t-18 40z" />
<glyph unicode="&#xd0;" horiz-adv-x="1181" d="M-129 74q0 100 100.5 155.5t223.5 61.5l45 133h-168q-31 0 -31 18q0 20 28.5 42t61.5 22h137l191 547q14 43 58 73.5t81 30.5q43 0 43 -39q0 -16 -4 -26l-203 -586h141q31 0 31 -19q0 -20 -29.5 -41.5t-62.5 -21.5h-108l-54 -156q113 -43 113 -137q0 -35 -19.5 -57.5 t-44.5 -22.5q-33 0 -32 35q0 37 -52 80l-8 -25q-14 -45 -59 -74.5t-82 -29.5q-43 0 -43 37q0 12 6 28l39 113q-45 -4 -89 -34.5t-44 -86.5q0 -154 297 -153q221 0 394 228t224 581q6 43 6 86q0 182 -108.5 307t-284.5 125q-102 0 -210.5 -49.5t-189.5 -151.5t-81 -231 q0 -59 23.5 -93t51 -41.5t51 -17.5t23.5 -27q0 -43 -110 -43q-88 0 -151.5 58.5t-63.5 163.5q0 145 100.5 261.5t254 177t323.5 60.5q246 0 407.5 -146.5t161.5 -381.5q0 -45 -6 -94q-35 -248 -172 -446.5t-325.5 -305t-387.5 -106.5q-193 0 -293 63.5t-100 155.5z" />
<glyph unicode="&#xd1;" horiz-adv-x="1009" d="M-170 825q0 213 149.5 361.5t301.5 148.5q115 0 193.5 -79.5t78.5 -217.5q0 -78 -35 -186l-156 -455q111 168 286 391.5t259 298.5q74 68 142 68q53 0 53 -45q0 -20 -12 -51l-293 -852q-14 -37 -15 -96q0 -147 86 -211q18 -14 19 -27q0 -18 -25 -18q-8 0 -12 2 q-100 25 -161.5 109.5t-61.5 183.5q0 47 14 83l205 592q12 31 12 39q0 6 -4 6q-8 0 -176 -196q-260 -303 -422 -584q-23 -39 -62.5 -64.5t-72.5 -25.5q-43 0 -43 37q0 12 6 26l272 795q31 92 31 168q0 100 -47 161.5t-127 61.5q-102 0 -173 -108.5t-71 -208.5 q0 -139 76 -139q27 0 54.5 23.5t37.5 23.5q27 0 27 -47q0 -59 -60.5 -114.5t-134.5 -55.5q-57 0 -98 46.5t-41 155.5zM633 1325q0 14 10 31q47 76 113 76q31 0 96.5 -40t83.5 -40q27 0 47 24q12 14 31 15q23 0 22 -21q0 -23 -34.5 -63.5t-86.5 -40.5q-33 0 -96 38.5 t-82 38.5q-29 0 -49 -24q-12 -14 -31 -14q-24 0 -24 20z" />
<glyph unicode="&#xd2;" horiz-adv-x="1064" d="M-45 291q0 186 82 382.5t198.5 338t246.5 232.5t229 91q45 0 45 -28q0 -25 -33 -37q-180 -66 -318.5 -243t-202 -370.5t-63.5 -365.5t57.5 -261t141.5 -89q125 0 267.5 142t225.5 417q55 184 56 319q0 106 -34 164.5t-87 58.5q-78 0 -165 -113.5t-148 -322.5 q-23 -78 -23 -155q0 -61 25 -105l24 -43q0 -29 -35 -29q-86 0 -129 62.5t-43 161.5q0 76 25 149q80 236 229.5 371t294.5 135q106 0 173 -78t67 -227q0 -82 -21 -176q-43 -197 -114.5 -347.5t-149.5 -237.5t-169 -141.5t-164.5 -72.5t-147.5 -18q-166 0 -253 118.5 t-87 317.5zM700 1571q0 10 5 22l24 74q10 29 33 29q10 0 26 -10l254 -199q18 -16 19 -33q0 -29 -27 -29q-4 0 -20 7l-17 6l-268 98q-29 12 -29 35z" />
<glyph unicode="&#xd3;" horiz-adv-x="1064" d="M-45 291q0 186 82 382.5t198.5 338t246.5 232.5t229 91q45 0 45 -28q0 -25 -33 -37q-180 -66 -318.5 -243t-202 -370.5t-63.5 -365.5t57.5 -261t141.5 -89q125 0 267.5 142t225.5 417q55 184 56 319q0 106 -34 164.5t-87 58.5q-78 0 -165 -113.5t-148 -322.5 q-23 -78 -23 -155q0 -61 25 -105l24 -43q0 -29 -35 -29q-86 0 -129 62.5t-43 161.5q0 76 25 149q80 236 229.5 371t294.5 135q106 0 173 -78t67 -227q0 -82 -21 -176q-43 -197 -114.5 -347.5t-149.5 -237.5t-169 -141.5t-164.5 -72.5t-147.5 -18q-166 0 -253 118.5 t-87 317.5zM682 1448q0 31 37 53l309 187q10 8 25 8q27 0 26 -29q0 -2 -1 -5t-1 -5l-30 -86q-10 -33 -46 -45l-278 -96q-12 -4 -18 -5q-23 0 -23 23z" />
<glyph unicode="&#xd4;" horiz-adv-x="1064" d="M-45 291q0 186 82 382.5t198.5 338t246.5 232.5t229 91q45 0 45 -28q0 -25 -33 -37q-180 -66 -318.5 -243t-202 -370.5t-63.5 -365.5t57.5 -261t141.5 -89q125 0 267.5 142t225.5 417q55 184 56 319q0 106 -34 164.5t-87 58.5q-78 0 -165 -113.5t-148 -322.5 q-23 -78 -23 -155q0 -61 25 -105l24 -43q0 -29 -35 -29q-86 0 -129 62.5t-43 161.5q0 76 25 149q80 236 229.5 371t294.5 135q106 0 173 -78t67 -227q0 -82 -21 -176q-43 -197 -114.5 -347.5t-149.5 -237.5t-169 -141.5t-164.5 -72.5t-147.5 -18q-166 0 -253 118.5 t-87 317.5zM641 1448q0 23 25 43l227 182q31 23 53.5 23t34.5 -27l80 -196q4 -12 4 -17q0 -31 -27 -31q-12 0 -30 19l-103 104l-219 -114q-12 -6 -22 -7q-23 1 -23 21z" />
<glyph unicode="&#xd5;" horiz-adv-x="1064" d="M-45 291q0 186 82 382.5t198.5 338t246.5 232.5t229 91q45 0 45 -28q0 -25 -33 -37q-180 -66 -318.5 -243t-202 -370.5t-63.5 -365.5t57.5 -261t141.5 -89q125 0 267.5 142t225.5 417q55 184 56 319q0 106 -34 164.5t-87 58.5q-78 0 -165 -113.5t-148 -322.5 q-23 -78 -23 -155q0 -61 25 -105l24 -43q0 -29 -35 -29q-86 0 -129 62.5t-43 161.5q0 76 25 149q80 236 229.5 371t294.5 135q106 0 173 -78t67 -227q0 -82 -21 -176q-43 -197 -114.5 -347.5t-149.5 -237.5t-169 -141.5t-164.5 -72.5t-147.5 -18q-166 0 -253 118.5 t-87 317.5zM672 1487q0 16 10 31q47 76 113 75q33 0 96 -40t84 -40q27 0 47 25q12 14 31 14q23 0 22 -20q0 -23 -34.5 -64t-86.5 -41q-33 0 -96 39t-82 39q-27 0 -49 -24q-12 -14 -31 -15q-24 1 -24 21z" />
<glyph unicode="&#xd6;" horiz-adv-x="1064" d="M-45 291q0 186 82 382.5t198.5 338t246.5 232.5t229 91q45 0 45 -28q0 -25 -33 -37q-180 -66 -318.5 -243t-202 -370.5t-63.5 -365.5t57.5 -261t141.5 -89q125 0 267.5 142t225.5 417q55 184 56 319q0 106 -34 164.5t-87 58.5q-78 0 -165 -113.5t-148 -322.5 q-23 -78 -23 -155q0 -61 25 -105l24 -43q0 -29 -35 -29q-86 0 -129 62.5t-43 161.5q0 76 25 149q80 236 229.5 371t294.5 135q106 0 173 -78t67 -227q0 -82 -21 -176q-43 -197 -114.5 -347.5t-149.5 -237.5t-169 -141.5t-164.5 -72.5t-147.5 -18q-166 0 -253 118.5 t-87 317.5zM651 1513q0 41 41 77t88 36q25 0 44.5 -14.5t19.5 -40.5q0 -37 -42 -75t-87 -38q-27 0 -45.5 15t-18.5 40zM897 1513q0 41 41 77t88 36q25 0 44.5 -14.5t19.5 -40.5q0 -37 -42 -75t-87 -38q-27 0 -45.5 15t-18.5 40z" />
<glyph unicode="&#xd7;" horiz-adv-x="716" d="M68 457q0 43 41 71l182 136l-66 98q-16 25 -16 59.5t16.5 62t36.5 27.5q18 0 35 -22l96 -148l207 154q20 14 35 14q25 0 24 -32q0 -39 -38 -70l-183 -135l66 -101q16 -25 16 -61q0 -35 -15.5 -60.5t-35.5 -25.5q-18 0 -35 25l-98 147l-209 -156q-20 -14 -35 -14 q-24 0 -24 31z" />
<glyph unicode="&#xd8;" horiz-adv-x="1064" d="M-45 291q0 186 82 382.5t198.5 338t246.5 232.5t229 91q45 0 45 -28q0 -25 -33 -37q-180 -66 -318.5 -243t-202 -370.5t-63.5 -365.5q0 -125 33 -211l160 237q-59 59 -60 181q0 76 25 149q80 236 229.5 371t294.5 135q33 0 68 -10l86 127q45 68 100 67q29 0 29 -26 q0 -20 -21 -49l-110 -164q88 -82 88 -250q0 -82 -21 -176q-43 -197 -114.5 -347.5t-149.5 -237.5t-169 -141.5t-164.5 -72.5t-147.5 -18q-80 0 -143 28l-29 -43q-45 -68 -100 -67q-29 0 -29 24q0 20 20 49l60 91q-119 114 -119 354zM225 -8q49 -51 113 -51q125 0 267.5 142 t225.5 417q55 184 56 319q0 72 -17 125l-411 -608q20 -29 20 -33q0 -29 -35 -29q-18 0 -26 2zM430 463l381 565q-25 14 -45 14q-78 0 -165 -113.5t-148 -322.5q-23 -71 -23 -143z" />
<glyph unicode="&#xd9;" horiz-adv-x="1038" d="M-100 795q0 102 86 229t220 219t257 92q201 0 201 -161q0 -57 -23 -115q-45 -121 -135 -302.5t-145.5 -311.5t-55.5 -205q0 -102 68 -103q90 0 233.5 165t220.5 390l125 361q14 43 58.5 73.5t83.5 30.5q43 0 43 -37q0 -14 -7 -28l-305 -885q-14 -39 -14 -96 q0 -147 86 -211q16 -14 16 -27q0 -18 -24 -18q-6 0 -10 2q-102 25 -162 110.5t-60 184.5q0 45 13 81l24 70q-225 -303 -397 -303q-78 0 -124 61.5t-46 139.5q0 18 2 26q14 119 76.5 267.5t149.5 314.5t120 252q18 53 19 90q0 47 -25 72.5t-68 25.5q-111 0 -219 -135 q-115 -143 -114 -276q0 -53 19 -85t48 -32q6 0 16.5 2t14.5 2q23 0 22 -20q0 -31 -39.5 -61t-87.5 -30q-61 0 -111 49.5t-50 131.5zM692 1409q0 10 4 23l25 73q10 29 33 29q10 0 26 -10l254 -199q18 -14 19 -33q0 -29 -27 -28q-4 0 -20 6l-17 6l-268 98q-29 12 -29 35z" />
<glyph unicode="&#xda;" horiz-adv-x="1038" d="M-100 795q0 102 86 229t220 219t257 92q201 0 201 -161q0 -57 -23 -115q-45 -121 -135 -302.5t-145.5 -311.5t-55.5 -205q0 -102 68 -103q90 0 233.5 165t220.5 390l125 361q14 43 58.5 73.5t83.5 30.5q43 0 43 -37q0 -14 -7 -28l-305 -885q-14 -39 -14 -96 q0 -147 86 -211q16 -14 16 -27q0 -18 -24 -18q-6 0 -10 2q-102 25 -162 110.5t-60 184.5q0 45 13 81l24 70q-225 -303 -397 -303q-78 0 -124 61.5t-46 139.5q0 18 2 26q14 119 76.5 267.5t149.5 314.5t120 252q18 53 19 90q0 47 -25 72.5t-68 25.5q-111 0 -219 -135 q-115 -143 -114 -276q0 -53 19 -85t48 -32q6 0 16.5 2t14.5 2q23 0 22 -20q0 -31 -39.5 -61t-87.5 -30q-61 0 -111 49.5t-50 131.5zM745 1286q0 31 37 53l310 187q10 8 24 8q27 0 27 -29q0 -2 -1 -5t-1 -5l-31 -86q-10 -33 -45 -45l-279 -96q-12 -4 -18 -4q-23 -1 -23 22z " />
<glyph unicode="&#xdb;" horiz-adv-x="1038" d="M-100 795q0 102 86 229t220 219t257 92q201 0 201 -161q0 -57 -23 -115q-45 -121 -135 -302.5t-145.5 -311.5t-55.5 -205q0 -102 68 -103q90 0 233.5 165t220.5 390l125 361q14 43 58.5 73.5t83.5 30.5q43 0 43 -37q0 -14 -7 -28l-305 -885q-14 -39 -14 -96 q0 -147 86 -211q16 -14 16 -27q0 -18 -24 -18q-6 0 -10 2q-102 25 -162 110.5t-60 184.5q0 45 13 81l24 70q-225 -303 -397 -303q-78 0 -124 61.5t-46 139.5q0 18 2 26q14 119 76.5 267.5t149.5 314.5t120 252q18 53 19 90q0 47 -25 72.5t-68 25.5q-111 0 -219 -135 q-115 -143 -114 -276q0 -53 19 -85t48 -32q6 0 16.5 2t14.5 2q23 0 22 -20q0 -31 -39.5 -61t-87.5 -30q-61 0 -111 49.5t-50 131.5zM705 1286.5q0 20.5 24 42.5l227 182q31 23 53.5 23t34.5 -27l80 -196q4 -12 4 -17q0 -31 -26 -30q-12 0 -31 18l-102 104l-219 -114 q-12 -6 -23 -6q-22 0 -22 20.5z" />
<glyph unicode="&#xdc;" horiz-adv-x="1038" d="M-100 795q0 102 86 229t220 219t257 92q201 0 201 -161q0 -57 -23 -115q-45 -121 -135 -302.5t-145.5 -311.5t-55.5 -205q0 -102 68 -103q90 0 233.5 165t220.5 390l125 361q14 43 58.5 73.5t83.5 30.5q43 0 43 -37q0 -14 -7 -28l-305 -885q-14 -39 -14 -96 q0 -147 86 -211q16 -14 16 -27q0 -18 -24 -18q-6 0 -10 2q-102 25 -162 110.5t-60 184.5q0 45 13 81l24 70q-225 -303 -397 -303q-78 0 -124 61.5t-46 139.5q0 18 2 26q14 119 76.5 267.5t149.5 314.5t120 252q18 53 19 90q0 47 -25 72.5t-68 25.5q-111 0 -219 -135 q-115 -143 -114 -276q0 -53 19 -85t48 -32q6 0 16.5 2t14.5 2q23 0 22 -20q0 -31 -39.5 -61t-87.5 -30q-61 0 -111 49.5t-50 131.5zM715 1352q0 41 41 76.5t88 35.5q25 0 44 -14t19 -41q0 -37 -42 -75t-87 -38q-27 0 -45 15.5t-18 40.5zM961 1352q0 41 40.5 76.5t88.5 35.5 q25 0 44 -14t19 -41q0 -37 -42 -75t-87 -38q-27 0 -45 15.5t-18 40.5z" />
<glyph unicode="&#xdd;" horiz-adv-x="1017" d="M-109 795q0 98 84 225t218.5 221t261.5 94q201 0 200 -161q0 -57 -22 -115q-45 -121 -135 -302.5t-145.5 -311.5t-55.5 -205q0 -102 70 -103q92 0 234 167t228 417l115 332q14 43 58.5 73.5t82.5 30.5q43 0 43 -37q0 -14 -6 -28q-260 -754 -383 -1108q106 -6 167 -45 t61 -97q0 -35 -27 -79t-59 -44q-29 0 -29 27q0 6 2 19.5t2 19.5q0 104 -141 123l-6 -19q-66 -193 -181.5 -278.5t-230.5 -85.5q-78 0 -128 41t-50 98q0 104 138 187t312 118q37 100 119 340q-227 -309 -399 -309q-78 0 -124 61.5t-46 139.5q0 106 61.5 255.5t156.5 331 t130 273.5q18 53 18 90q0 47 -24.5 72.5t-67.5 25.5q-111 0 -219 -135q-115 -143 -115 -274q0 -53 19.5 -86t48.5 -33q6 0 16.5 2t14.5 2q23 0 22 -20q0 -33 -42 -62t-85 -29q-61 0 -111.5 49.5t-50.5 131.5zM293 -301q0 -29 21.5 -49.5t47.5 -20.5q37 0 75 34t61 95l47 138 q-104 -25 -178 -78t-74 -119zM752 1286q0 31 36 53l310 187q10 8 24 8q27 0 27 -29q0 -2 -1 -5t-1 -5l-31 -86q-10 -33 -45 -45l-278 -96q-12 -4 -19 -4q-22 -1 -22 22z" />
<glyph unicode="&#xde;" horiz-adv-x="1110" d="M-117 547q0 195 180.5 331t421.5 164l66 189q16 43 60 73.5t81 30.5q43 0 43 -37q0 -10 -84 -254q184 -16 299 -116.5t115 -237.5q0 -86 -34 -162.5t-85 -128t-112.5 -90.5t-116.5 -56t-99 -17q-33 0 -52 11t-19 25q0 20 33 23q106 12 206.5 110.5t100.5 274.5 q0 111 -79 190.5t-181 102.5l-258 -754q-53 -156 -154.5 -260t-245.5 -104q-35 0 -35 22.5t47.5 34.5t99.5 59t77 117l303 879q-158 -37 -280 -148.5t-122 -271.5q0 -123 115 -146q35 -6 35 -32q0 -43 -111 -43q-88 0 -151.5 59.5t-63.5 161.5z" />
<glyph unicode="&#xdf;" horiz-adv-x="735" d="M-59 39q0 4 4 24l182 650h-59q-33 0 -33 20.5t27.5 42t60.5 21.5h35q88 215 230 375.5t226 160.5q57 0 58 -86q0 -311 -250 -583q-27 -31 -27 -66q0 -39 52.5 -99.5t105.5 -130t53 -132.5l-4 -39q45 0 71.5 12t61.5 53q16 16 35 17q25 0 25 -21q0 -25 -31 -57 q-88 -104 -191 -105l-22 2q-90 -98 -254 -98q-49 0 -98 23.5t-49 68.5q0 47 62 87t165 40q43 0 98 -8q-10 47 -112.5 155.5t-102.5 180.5q0 29 12.5 52.5t44 58t37.5 40.5q123 150 160 363q2 10 2 29q0 45 -27 45q-29 0 -70.5 -47.5t-93 -160t-83.5 -261.5l-92 -410 q-6 -33 -39 -152q-10 -41 -49 -72.5t-80 -31.5t-41 39zM264 115q0 -18 19.5 -33.5t48.5 -15.5q82 0 123 53q-106 31 -138 31q-53 0 -53 -35z" />
<glyph unicode="&#xe0;" horiz-adv-x="645" d="M-57 186q0 150 130 289t302 139q80 0 131 -31.5t51 -90.5q0 -68 -42 -95.5t-81 -27.5q-74 0 -74 34q0 10 32 25.5t32 52.5q0 55 -82 56q-102 0 -178 -113t-76 -219q0 -47 19.5 -81t56.5 -34q35 0 79 43t68 109q16 43 55.5 72.5t73.5 29.5q37 0 37 -33q0 -12 -6 -30 q-51 -166 -51 -168q0 -18 16 -19q27 0 83 44t126 124q12 16 34.5 16.5t22.5 -20.5q0 -23 -28 -57q-82 -96 -162 -148.5t-135 -52.5q-88 0 -98 82q-72 -82 -162 -82q-72 0 -123 53t-51 133zM248 850q0 10 4 22l24 74q10 29 33 29q10 0 27 -10l254 -199q18 -16 18 -33 q0 -29 -26 -28q-4 0 -21 6l-16 6l-269 98q-28 12 -28 35z" />
<glyph unicode="&#xe1;" horiz-adv-x="645" d="M-57 186q0 150 130 289t302 139q80 0 131 -31.5t51 -90.5q0 -68 -42 -95.5t-81 -27.5q-74 0 -74 34q0 10 32 25.5t32 52.5q0 55 -82 56q-102 0 -178 -113t-76 -219q0 -47 19.5 -81t56.5 -34q35 0 79 43t68 109q16 43 55.5 72.5t73.5 29.5q37 0 37 -33q0 -12 -6 -30 q-51 -166 -51 -168q0 -18 16 -19q27 0 83 44t126 124q12 16 34.5 16.5t22.5 -20.5q0 -23 -28 -57q-82 -96 -162 -148.5t-135 -52.5q-88 0 -98 82q-72 -82 -162 -82q-72 0 -123 53t-51 133zM229 727q0 31 37 53l309 187q10 8 25 8q27 0 27 -29q0 -2 -1 -5t-1 -5l-31 -86 q-10 -33 -45 -45l-279 -96q-12 -4 -18 -4q-23 -1 -23 22z" />
<glyph unicode="&#xe2;" horiz-adv-x="645" d="M-57 186q0 150 130 289t302 139q80 0 131 -31.5t51 -90.5q0 -68 -42 -95.5t-81 -27.5q-74 0 -74 34q0 10 32 25.5t32 52.5q0 55 -82 56q-102 0 -178 -113t-76 -219q0 -47 19.5 -81t56.5 -34q35 0 79 43t68 109q16 43 55.5 72.5t73.5 29.5q37 0 37 -33q0 -12 -6 -30 q-51 -166 -51 -168q0 -18 16 -19q27 0 83 44t126 124q12 16 34.5 16.5t22.5 -20.5q0 -23 -28 -57q-82 -96 -162 -148.5t-135 -52.5q-88 0 -98 82q-72 -82 -162 -82q-72 0 -123 53t-51 133zM188 727q0 23 25 43l227 182q31 23 53.5 23t34.5 -27l80 -196q4 -12 4 -17 q0 -31 -26 -30q-12 0 -31 18l-102 104l-220 -114q-12 -6 -22 -6q-23 0 -23 20z" />
<glyph unicode="&#xe3;" horiz-adv-x="645" d="M-57 186q0 150 130 289t302 139q80 0 131 -31.5t51 -90.5q0 -68 -42 -95.5t-81 -27.5q-74 0 -74 34q0 10 32 25.5t32 52.5q0 55 -82 56q-102 0 -178 -113t-76 -219q0 -47 19.5 -81t56.5 -34q35 0 79 43t68 109q16 43 55.5 72.5t73.5 29.5q37 0 37 -33q0 -12 -6 -30 q-51 -166 -51 -168q0 -18 16 -19q27 0 83 44t126 124q12 16 34.5 16.5t22.5 -20.5q0 -23 -28 -57q-82 -96 -162 -148.5t-135 -52.5q-88 0 -98 82q-72 -82 -162 -82q-72 0 -123 53t-51 133zM219 766q0 16 10 31q47 76 113 75q31 0 96.5 -39.5t83.5 -39.5q27 0 47 24 q12 14 31 14q23 0 23 -20q0 -23 -35 -63.5t-86 -40.5q-33 0 -96.5 38.5t-81.5 38.5q-29 0 -50 -24q-12 -14 -30 -15q-25 1 -25 21z" />
<glyph unicode="&#xe4;" horiz-adv-x="645" d="M-57 186q0 150 130 289t302 139q80 0 131 -31.5t51 -90.5q0 -68 -42 -95.5t-81 -27.5q-74 0 -74 34q0 10 32 25.5t32 52.5q0 55 -82 56q-102 0 -178 -113t-76 -219q0 -47 19.5 -81t56.5 -34q35 0 79 43t68 109q16 43 55.5 72.5t73.5 29.5q37 0 37 -33q0 -12 -6 -30 q-51 -166 -51 -168q0 -18 16 -19q27 0 83 44t126 124q12 16 34.5 16.5t22.5 -20.5q0 -23 -28 -57q-82 -96 -162 -148.5t-135 -52.5q-88 0 -98 82q-72 -82 -162 -82q-72 0 -123 53t-51 133zM199 793q0 41 41 76.5t88 35.5q25 0 44 -14t19 -41q0 -37 -42 -75t-87 -38 q-27 0 -45 15.5t-18 40.5zM444 793q0 41 41 76.5t88 35.5q25 0 44.5 -14t19.5 -41q0 -37 -42 -75t-87 -38q-27 0 -45.5 15.5t-18.5 40.5z" />
<glyph unicode="&#xe5;" horiz-adv-x="645" d="M-57 186q0 150 130 289t302 139q80 0 131 -31.5t51 -90.5q0 -68 -42 -95.5t-81 -27.5q-74 0 -74 34q0 10 32 25.5t32 52.5q0 55 -82 56q-102 0 -178 -113t-76 -219q0 -47 19.5 -81t56.5 -34q35 0 79 43t68 109q16 43 55.5 72.5t73.5 29.5q37 0 37 -33q0 -12 -6 -30 q-51 -166 -51 -168q0 -18 16 -19q27 0 83 44t126 124q12 16 34.5 16.5t22.5 -20.5q0 -23 -28 -57q-82 -96 -162 -148.5t-135 -52.5q-88 0 -98 82q-72 -82 -162 -82q-72 0 -123 53t-51 133zM297 809q0 66 59.5 122t135.5 56q53 0 89.5 -31.5t36.5 -85.5q0 -68 -60 -123 t-134 -55q-53 0 -90 33t-37 84zM391 827q0 -31 15.5 -51t39.5 -20q27 0 52.5 30.5t25.5 69.5q0 68 -55 68q-29 0 -53.5 -29t-24.5 -68z" />
<glyph unicode="&#xe6;" horiz-adv-x="899" d="M-57 186q0 135 108 265q63 76 151.5 119.5t170.5 43.5q94 0 135 -51q88 51 184 51q72 0 111 -36.5t39 -88.5q0 -80 -90 -172t-205 -143q-12 -6 -23 -6q-29 0 -28 25q0 20 28 43q78 61 125 128.5t47 120.5q0 57 -47 58q-61 0 -124.5 -93.5t-63.5 -203.5q0 -70 41 -108 t106 -38q152 0 291 162q16 16 35 17q25 0 24 -23q0 -20 -28 -55q-78 -92 -181.5 -146.5t-203.5 -54.5q-80 0 -139.5 40t-81.5 105v-2q-82 -143 -207 -143q-70 0 -122 54t-52 132zM88 205q0 -47 19.5 -81t56.5 -34q35 0 78 43t69 109q4 109 76 207q12 14 12 36q0 51 -59 52 q-96 0 -174 -109.5t-78 -222.5z" />
<glyph unicode="&#xe7;" horiz-adv-x="534" d="M-55 217q0 154 111.5 275.5t269.5 121.5q68 0 112.5 -35.5t44.5 -91.5q0 -63 -47 -112t-106 -49q-35 0 -56.5 17t-21.5 40q0 12 9 22.5t24 10.5h10q47 0 47 63q0 61 -53 62q-76 0 -135.5 -96.5t-59.5 -198.5q0 -70 41 -108t109 -38q152 0 291 162q12 16 34.5 16.5 t22.5 -20.5q0 -23 -29 -57q-158 -184 -356 -201l-17 -45q18 6 39 6q35 0 59.5 -19.5t24.5 -58.5q0 -55 -48 -87t-107 -32q-33 0 -59.5 11.5t-26.5 31.5q0 25 22 25q6 0 24.5 -8t39.5 -8q33 0 54 18.5t21 38.5q0 31 -36 31q-14 0 -30.5 -6.5t-23.5 -6.5q-25 0 -24 21 q0 2 4 14l24 74q-90 10 -146 69.5t-56 147.5z" />
<glyph unicode="&#xe8;" horiz-adv-x="534" d="M-55 217q0 150 109.5 273.5t271.5 123.5q72 0 111.5 -36.5t39.5 -88.5q0 -80 -91 -171t-206 -144q-12 -6 -22 -6q-29 0 -29 25q0 20 29 43q172 137 172 249q0 57 -47 58q-66 0 -127.5 -96.5t-61.5 -200.5q0 -70 41 -108t109 -38q152 0 291 162q12 16 34.5 16.5 t22.5 -20.5q0 -23 -29 -57q-78 -92 -181 -146.5t-203.5 -54.5t-167 60.5t-66.5 156.5zM207 850q0 10 4 22l25 74q10 29 32 29q10 0 27 -10l254 -199q18 -16 18 -33q0 -29 -26 -28q-4 0 -21 6l-16 6l-268 98q-29 12 -29 35z" />
<glyph unicode="&#xe9;" horiz-adv-x="534" d="M-55 217q0 150 109.5 273.5t271.5 123.5q72 0 111.5 -36.5t39.5 -88.5q0 -80 -91 -171t-206 -144q-12 -6 -22 -6q-29 0 -29 25q0 20 29 43q172 137 172 249q0 57 -47 58q-66 0 -127.5 -96.5t-61.5 -200.5q0 -70 41 -108t109 -38q152 0 291 162q12 16 34.5 16.5 t22.5 -20.5q0 -23 -29 -57q-78 -92 -181 -146.5t-203.5 -54.5t-167 60.5t-66.5 156.5zM188 727q0 31 37 53l310 187q10 8 24 8q27 0 27 -29q0 -2 -1 -5t-1 -5l-31 -86q-10 -33 -45 -45l-279 -96q-12 -4 -18 -4q-23 -1 -23 22z" />
<glyph unicode="&#xea;" horiz-adv-x="534" d="M-55 217q0 150 109.5 273.5t271.5 123.5q72 0 111.5 -36.5t39.5 -88.5q0 -80 -91 -171t-206 -144q-12 -6 -22 -6q-29 0 -29 25q0 20 29 43q172 137 172 249q0 57 -47 58q-66 0 -127.5 -96.5t-61.5 -200.5q0 -70 41 -108t109 -38q152 0 291 162q12 16 34.5 16.5 t22.5 -20.5q0 -23 -29 -57q-78 -92 -181 -146.5t-203.5 -54.5t-167 60.5t-66.5 156.5zM147 727q0 23 25 43l227 182q31 23 53.5 23t34.5 -27l80 -196q4 -12 4 -17q0 -31 -26 -30q-12 0 -31 18l-102 104l-219 -114q-12 -6 -23 -6q-23 0 -23 20z" />
<glyph unicode="&#xeb;" horiz-adv-x="534" d="M-55 217q0 150 109.5 273.5t271.5 123.5q72 0 111.5 -36.5t39.5 -88.5q0 -80 -91 -171t-206 -144q-12 -6 -22 -6q-29 0 -29 25q0 20 29 43q172 137 172 249q0 57 -47 58q-66 0 -127.5 -96.5t-61.5 -200.5q0 -70 41 -108t109 -38q152 0 291 162q12 16 34.5 16.5 t22.5 -20.5q0 -23 -29 -57q-78 -92 -181 -146.5t-203.5 -54.5t-167 60.5t-66.5 156.5zM158 793q0 41 41 76.5t88 35.5q25 0 44 -14t19 -41q0 -37 -42 -75t-87 -38q-27 0 -45 15.5t-18 40.5zM403 793q0 41 41 76.5t88 35.5q25 0 44.5 -14t19.5 -41q0 -37 -42 -75t-87 -38 q-27 0 -45.5 15.5t-18.5 40.5z" />
<glyph unicode="&#xec;" horiz-adv-x="342" d="M-37 115q0 37 12 75q25 84 105 252q10 25 10 29q0 8 -10 8q-2 0 -8 -1t-11 -1q-29 0 -28 21q0 33 69.5 74.5t143.5 41.5q41 0 41 -30q0 -20 -45 -119q-86 -186 -121 -303q-8 -29 -8 -41q0 -27 20 -27q27 0 83 44t126 124q14 16 35 17q25 0 24 -21q0 -25 -30 -57 q-82 -96 -162 -148.5t-135 -52.5q-111 0 -111 115zM84 850q0 10 4 22l25 74q10 29 32 29q10 0 27 -10l254 -199q18 -16 18 -33q0 -29 -26 -28q-4 0 -21 6l-16 6l-268 98q-29 12 -29 35z" />
<glyph unicode="&#xed;" horiz-adv-x="342" d="M-37 115q0 37 12 75q25 84 105 252q10 25 10 29q0 8 -10 8q-2 0 -8 -1t-11 -1q-29 0 -28 21q0 33 69.5 74.5t143.5 41.5q41 0 41 -30q0 -20 -45 -119q-86 -186 -121 -303q-8 -29 -8 -41q0 -27 20 -27q27 0 83 44t126 124q14 16 35 17q25 0 24 -21q0 -25 -30 -57 q-82 -96 -162 -148.5t-135 -52.5q-111 0 -111 115zM66 727q0 31 36 53l310 187q10 8 24 8q27 0 27 -29q0 -2 -1 -5t-1 -5l-31 -86q-10 -33 -45 -45l-279 -96q-12 -4 -18 -4q-22 -1 -22 22z" />
<glyph unicode="&#xee;" horiz-adv-x="342" d="M-37 115q0 37 12 75q25 84 105 252q10 25 10 29q0 8 -10 8q-2 0 -8 -1t-11 -1q-29 0 -28 21q0 33 69.5 74.5t143.5 41.5q41 0 41 -30q0 -20 -45 -119q-86 -186 -121 -303q-8 -29 -8 -41q0 -27 20 -27q27 0 83 44t126 124q14 16 35 17q25 0 24 -21q0 -25 -30 -57 q-82 -96 -162 -148.5t-135 -52.5q-111 0 -111 115zM25 727q0 23 24 43l227 182q31 23 53.5 23t35.5 -27l79 -196q4 -12 5 -17q0 -31 -27 -30q-12 0 -31 18l-102 104l-219 -114q-12 -6 -23 -6q-22 0 -22 20z" />
<glyph unicode="&#xef;" horiz-adv-x="342" d="M-37 115q0 37 12 75q25 84 105 252q10 25 10 29q0 8 -10 8q-2 0 -8 -1t-11 -1q-29 0 -28 21q0 33 69.5 74.5t143.5 41.5q41 0 41 -30q0 -20 -45 -119q-86 -186 -121 -303q-8 -29 -8 -41q0 -27 20 -27q27 0 83 44t126 124q14 16 35 17q25 0 24 -21q0 -25 -30 -57 q-82 -96 -162 -148.5t-135 -52.5q-111 0 -111 115zM35 793q0 41 41 76.5t88 35.5q25 0 44 -14t19 -41q0 -37 -42 -75t-87 -38q-27 0 -45 15.5t-18 40.5zM281 793q0 41 40.5 76.5t88.5 35.5q25 0 44 -14t19 -41q0 -37 -42 -75t-87 -38q-27 0 -45 15.5t-18 40.5z" />
<glyph unicode="&#xf0;" horiz-adv-x="579" d="M-49 209q0 156 127 290t266 134q45 0 45 -33q0 -31 -27 -31q-100 0 -185 -105.5t-85 -246.5q0 -127 84 -127q115 0 190.5 184.5t75.5 407.5q0 68 -6 131l-139 -45q-12 -4 -18 -4q-18 0 -19 18q0 20 21.5 47t48.5 35l92 29q-39 207 -141 313q-20 20 -21 39q0 27 31 27 q27 0 49 -21q59 -51 112.5 -139t77.5 -184l117 39q12 4 17 4q18 0 18 -20.5t-20.5 -46t-47.5 -34.5l-63 -20q18 -88 18 -182q0 -270 -141 -469t-293 -199q-82 0 -133 60.5t-51 148.5z" />
<glyph unicode="&#xf1;" horiz-adv-x="659" d="M-74 33q0 12 6 30l131 383q8 25 9 29q0 8 -9 8q-2 0 -8 -1t-10 -1q-29 0 -29 21q0 29 64.5 70.5t134.5 41.5q35 0 35 -34q0 -12 -6 -31l-47 -137q76 86 172 144t159 58q59 0 60 -55q0 -33 -29 -94q-80 -164 -121 -303q-6 -23 -6 -39q0 -29 19 -29q66 0 208 168 q16 16 35 17q25 0 25 -23q0 -18 -31 -55q-82 -96 -162 -148.5t-135 -52.5q-109 0 -108 113q0 35 12 77q18 66 46 129.5t46.5 99.5t18.5 46q0 12 -11 12q-39 0 -142 -101.5t-130 -180.5l-31 -91q-14 -45 -55 -74.5t-76 -29.5t-35 33zM199 766q0 16 10 31q47 76 113 75 q31 0 96 -39.5t84 -39.5q27 0 47 24q12 14 31 14q23 0 22 -20q0 -23 -35 -63.5t-86 -40.5q-33 0 -96 38.5t-82 38.5q-29 0 -49 -24q-12 -14 -31 -15q-24 1 -24 21z" />
<glyph unicode="&#xf2;" horiz-adv-x="641" d="M-49 209q0 141 102 262q78 92 113 92q29 0 29 -35q0 -12 -9 -20q-90 -94 -90 -236q0 -78 34 -130t87 -52q55 0 107 51q-63 39 -102.5 103.5t-39.5 142.5q0 84 47 155.5t131 71.5q61 0 109 -47q63 -61 63 -164q0 -111 -69 -210q10 -2 33 -3q82 0 145 72q12 16 34.5 16.5 t22.5 -20.5q0 -23 -28 -57q-88 -102 -207 -103q-33 0 -70 11q-115 -109 -248 -109q-90 0 -142 59.5t-52 149.5zM240 850q0 10 4 22l24 74q10 29 33 29q10 0 27 -10l254 -199q18 -16 18 -33q0 -29 -27 -28q-4 0 -20 6l-16 6l-269 98q-28 12 -28 35zM254 418q0 -55 35 -108.5 t90 -86.5q25 61 24 131q0 66 -20.5 113t-58.5 47q-35 0 -52.5 -28.5t-17.5 -67.5z" />
<glyph unicode="&#xf3;" horiz-adv-x="641" d="M-49 209q0 141 102 262q78 92 113 92q29 0 29 -35q0 -12 -9 -20q-90 -94 -90 -236q0 -78 34 -130t87 -52q55 0 107 51q-63 39 -102.5 103.5t-39.5 142.5q0 84 47 155.5t131 71.5q61 0 109 -47q63 -61 63 -164q0 -111 -69 -210q10 -2 33 -3q82 0 145 72q12 16 34.5 16.5 t22.5 -20.5q0 -23 -28 -57q-88 -102 -207 -103q-33 0 -70 11q-115 -109 -248 -109q-90 0 -142 59.5t-52 149.5zM221 727q0 31 37 53l309 187q10 8 25 8q27 0 26 -29q0 -2 -1 -5t-1 -5l-30 -86q-10 -33 -45 -45l-279 -96q-12 -4 -18 -4q-23 -1 -23 22zM254 418 q0 -55 35 -108.5t90 -86.5q25 61 24 131q0 66 -20.5 113t-58.5 47q-35 0 -52.5 -28.5t-17.5 -67.5z" />
<glyph unicode="&#xf4;" horiz-adv-x="641" d="M-49 209q0 141 102 262q78 92 113 92q29 0 29 -35q0 -12 -9 -20q-90 -94 -90 -236q0 -78 34 -130t87 -52q55 0 107 51q-63 39 -102.5 103.5t-39.5 142.5q0 84 47 155.5t131 71.5q61 0 109 -47q63 -61 63 -164q0 -111 -69 -210q10 -2 33 -3q82 0 145 72q12 16 34.5 16.5 t22.5 -20.5q0 -23 -28 -57q-88 -102 -207 -103q-33 0 -70 11q-115 -109 -248 -109q-90 0 -142 59.5t-52 149.5zM180 727q0 23 25 43l227 182q31 23 53.5 23t34.5 -27l80 -196q4 -12 4 -17q0 -31 -26 -30q-12 0 -31 18l-103 104l-219 -114q-12 -6 -22 -6q-23 0 -23 20z M254 418q0 -55 35 -108.5t90 -86.5q25 61 24 131q0 66 -20.5 113t-58.5 47q-35 0 -52.5 -28.5t-17.5 -67.5z" />
<glyph unicode="&#xf5;" horiz-adv-x="641" d="M-49 209q0 141 102 262q78 92 113 92q29 0 29 -35q0 -12 -9 -20q-90 -94 -90 -236q0 -78 34 -130t87 -52q55 0 107 51q-63 39 -102.5 103.5t-39.5 142.5q0 84 47 155.5t131 71.5q61 0 109 -47q63 -61 63 -164q0 -111 -69 -210q10 -2 33 -3q82 0 145 72q12 16 34.5 16.5 t22.5 -20.5q0 -23 -28 -57q-88 -102 -207 -103q-33 0 -70 11q-115 -109 -248 -109q-90 0 -142 59.5t-52 149.5zM211 766q0 16 10 31q47 76 113 75q31 0 96.5 -39.5t83.5 -39.5q27 0 47 24q12 14 31 14q23 0 22 -20q0 -23 -34.5 -63.5t-85.5 -40.5q-33 0 -96.5 38.5 t-82.5 38.5q-29 0 -49 -24q-12 -14 -30 -15q-25 1 -25 21zM254 418q0 -55 35 -108.5t90 -86.5q25 61 24 131q0 66 -20.5 113t-58.5 47q-35 0 -52.5 -28.5t-17.5 -67.5z" />
<glyph unicode="&#xf6;" horiz-adv-x="641" d="M-49 209q0 141 102 262q78 92 113 92q29 0 29 -35q0 -12 -9 -20q-90 -94 -90 -236q0 -78 34 -130t87 -52q55 0 107 51q-63 39 -102.5 103.5t-39.5 142.5q0 84 47 155.5t131 71.5q61 0 109 -47q63 -61 63 -164q0 -111 -69 -210q10 -2 33 -3q82 0 145 72q12 16 34.5 16.5 t22.5 -20.5q0 -23 -28 -57q-88 -102 -207 -103q-33 0 -70 11q-115 -109 -248 -109q-90 0 -142 59.5t-52 149.5zM190 793q0 41 41 76.5t88 35.5q25 0 44.5 -14t19.5 -41q0 -37 -42 -75t-87 -38q-27 0 -45.5 15.5t-18.5 40.5zM254 418q0 -55 35 -108.5t90 -86.5q25 61 24 131 q0 66 -20.5 113t-58.5 47q-35 0 -52.5 -28.5t-17.5 -67.5zM436 793q0 41 41 76.5t88 35.5q25 0 44.5 -14t19.5 -41q0 -37 -42 -75t-87 -38q-27 0 -45.5 15.5t-18.5 40.5z" />
<glyph unicode="&#xf7;" horiz-adv-x="716" d="M39 641q0 23 29.5 49.5t62.5 26.5h516q31 0 31 -23q0 -25 -28.5 -50.5t-61.5 -25.5h-516q-33 0 -33 23zM182 434q0 45 38 81t87 36q37 0 60.5 -20.5t23.5 -55.5q0 -43 -39 -79t-88 -36q-35 0 -58.5 20.5t-23.5 53.5zM328 856q0 45 37.5 81t87.5 36q37 0 60.5 -20.5 t23.5 -55.5q0 -43 -39 -79t-88 -36q-35 0 -58.5 20.5t-23.5 53.5z" />
<glyph unicode="&#xf8;" horiz-adv-x="641" d="M-49 209q0 141 102 262q78 92 113 92q29 0 29 -35q0 -12 -9 -20q-90 -94 -90 -236q0 -76 31 -125l82 121q-27 57 -27 119q0 84 47 155.5t131 71.5q37 0 70 -18l31 45q47 68 84 68q18 0 18 -19q0 -20 -24 -57l-56 -82q49 -59 49 -148q0 -111 -69 -210q10 -2 33 -3 q82 0 145 72q12 16 34.5 16.5t22.5 -20.5q0 -23 -28 -57q-88 -102 -207 -103q-33 0 -70 11q-115 -109 -248 -109q-25 0 -34 2l-37 -55q-45 -68 -86 -68q-16 0 -17 17q0 20 25 57l49 72q-94 57 -94 184zM176 98q16 -8 41 -8q55 0 107 51q-37 20 -76 64zM254 418q0 -35 12 -66 l96 144q-14 18 -38 18q-35 0 -52.5 -28.5t-17.5 -67.5zM303 287q33 -39 76 -64q25 61 24 131q0 27 -8 68z" />
<glyph unicode="&#xf9;" horiz-adv-x="673" d="M-27 131q0 106 105 315q10 20 10 27q0 8 -10 8q-2 0 -8.5 -1t-10.5 -1q-29 0 -28 21q0 31 66.5 72.5t135.5 41.5q49 0 50 -36q0 -16 -9 -31q-12 -25 -62 -121t-73.5 -157.5t-23.5 -115t26 -53.5q43 0 132 120t163 282q25 51 67 80.5t75 29.5q39 0 38 -32q0 -14 -10 -37 q-162 -373 -162 -420q0 -29 21 -29q61 0 209 168q12 16 34.5 16.5t22.5 -20.5q0 -23 -29 -57q-82 -96 -161.5 -148.5t-137.5 -52.5q-98 0 -98 98q0 35 12 78q-127 -176 -243 -176q-45 0 -73 34t-28 97zM252 850q0 10 4 22l25 74q10 29 32 29q10 0 27 -10l254 -199 q18 -16 18 -33q0 -29 -26 -28q-4 0 -21 6l-16 6l-268 98q-29 12 -29 35z" />
<glyph unicode="&#xfa;" horiz-adv-x="673" d="M-27 131q0 106 105 315q10 20 10 27q0 8 -10 8q-2 0 -8.5 -1t-10.5 -1q-29 0 -28 21q0 31 66.5 72.5t135.5 41.5q49 0 50 -36q0 -16 -9 -31q-12 -25 -62 -121t-73.5 -157.5t-23.5 -115t26 -53.5q43 0 132 120t163 282q25 51 67 80.5t75 29.5q39 0 38 -32q0 -14 -10 -37 q-162 -373 -162 -420q0 -29 21 -29q61 0 209 168q12 16 34.5 16.5t22.5 -20.5q0 -23 -29 -57q-82 -96 -161.5 -148.5t-137.5 -52.5q-98 0 -98 98q0 35 12 78q-127 -176 -243 -176q-45 0 -73 34t-28 97zM233 727q0 31 37 53l310 187q10 8 24 8q27 0 27 -29q0 -2 -1 -5t-1 -5 l-31 -86q-10 -33 -45 -45l-279 -96q-12 -4 -18 -4q-23 -1 -23 22z" />
<glyph unicode="&#xfb;" horiz-adv-x="673" d="M-27 131q0 106 105 315q10 20 10 27q0 8 -10 8q-2 0 -8.5 -1t-10.5 -1q-29 0 -28 21q0 31 66.5 72.5t135.5 41.5q49 0 50 -36q0 -16 -9 -31q-12 -25 -62 -121t-73.5 -157.5t-23.5 -115t26 -53.5q43 0 132 120t163 282q25 51 67 80.5t75 29.5q39 0 38 -32q0 -14 -10 -37 q-162 -373 -162 -420q0 -29 21 -29q61 0 209 168q12 16 34.5 16.5t22.5 -20.5q0 -23 -29 -57q-82 -96 -161.5 -148.5t-137.5 -52.5q-98 0 -98 98q0 35 12 78q-127 -176 -243 -176q-45 0 -73 34t-28 97zM193 727q0 23 24 43l227 182q31 23 53.5 23t34.5 -27l80 -196 q4 -12 4 -17q0 -31 -26 -30q-12 0 -31 18l-102 104l-219 -114q-12 -6 -23 -6q-22 0 -22 20z" />
<glyph unicode="&#xfc;" horiz-adv-x="673" d="M-27 131q0 106 105 315q10 20 10 27q0 8 -10 8q-2 0 -8.5 -1t-10.5 -1q-29 0 -28 21q0 31 66.5 72.5t135.5 41.5q49 0 50 -36q0 -16 -9 -31q-12 -25 -62 -121t-73.5 -157.5t-23.5 -115t26 -53.5q43 0 132 120t163 282q25 51 67 80.5t75 29.5q39 0 38 -32q0 -14 -10 -37 q-162 -373 -162 -420q0 -29 21 -29q61 0 209 168q12 16 34.5 16.5t22.5 -20.5q0 -23 -29 -57q-82 -96 -161.5 -148.5t-137.5 -52.5q-98 0 -98 98q0 35 12 78q-127 -176 -243 -176q-45 0 -73 34t-28 97zM203 793q0 41 41 76.5t88 35.5q25 0 44 -14t19 -41q0 -37 -42 -75 t-87 -38q-27 0 -45 15.5t-18 40.5zM449 793q0 41 40.5 76.5t88.5 35.5q25 0 44 -14t19 -41q0 -37 -42 -75t-87 -38q-27 0 -45 15.5t-18 40.5z" />
<glyph unicode="&#xfd;" horiz-adv-x="667" d="M-123 -563q0 233 318 467l61 45q31 125 59 229q-127 -178 -243 -178q-45 0 -73 34t-28 97q0 86 105 315q10 25 10 27q0 8 -8 8q-2 0 -8.5 -2t-12.5 -2q-27 0 -26 23q0 27 41 55q82 59 159 59q49 0 50 -39q0 -14 -7 -28q-14 -29 -49 -95.5t-55 -107.5t-37.5 -95t-17.5 -95 q0 -55 28 -56q39 0 117 102.5t148 243.5q39 78 45 86q55 82 122 82q43 0 43 -34q0 -14 -8 -29q-113 -238 -184 -488q184 131 242 201q12 16 34.5 16.5t22.5 -20.5q0 -23 -29 -57q-66 -82 -301 -250q-47 -184 -88 -402q-29 -147 -107.5 -233t-166.5 -86q-76 0 -116 61.5 t-40 145.5zM14 -565q0 -61 21.5 -90t44.5 -29q27 0 42 36t32 113q57 276 73 355q-43 -33 -75 -70q-61 -61 -99.5 -149t-38.5 -166zM233 727q0 31 37 53l310 187q10 8 24 8q27 0 27 -29q0 -2 -1 -5t-1 -5l-31 -86q-10 -33 -45 -45l-279 -96q-12 -4 -18 -4q-23 -1 -23 22z" />
<glyph unicode="&#xfe;" horiz-adv-x="692" d="M-311 -651q0 12 6 30l614 1788q8 25 8 29q0 8 -8 8q-2 0 -8 -2t-14 -2q-23 0 -23 23q0 29 64.5 70.5t134.5 41.5q35 0 35 -35q0 -12 -6 -30l-275 -793q119 137 232 137q74 0 115.5 -56t41.5 -126q0 -119 -80 -239q10 -2 31 -3q35 0 59.5 10.5t38 21.5t37.5 40 q12 16 35 16.5t23 -20.5q0 -23 -29 -57q-82 -96 -176 -97q-41 0 -78 13q-100 -117 -231 -117q-45 0 -74 21.5t-29 62.5q0 59 46 99t132 40q47 0 109 -12q35 86 35 174q0 123 -80 123q-61 0 -135 -92t-111 -201l-274 -795q-16 -45 -56.5 -74.5t-75 -29.5t-34.5 33zM244 102 q0 -37 37 -36q53 0 106 79q-53 16 -76 19q-31 0 -49 -17.5t-18 -44.5z" />
<glyph unicode="&#xff;" horiz-adv-x="667" d="M-123 -563q0 233 318 467l61 45q31 125 59 229q-127 -178 -243 -178q-45 0 -73 34t-28 97q0 86 105 315q10 25 10 27q0 8 -8 8q-2 0 -8.5 -2t-12.5 -2q-27 0 -26 23q0 27 41 55q82 59 159 59q49 0 50 -39q0 -14 -7 -28q-14 -29 -49 -95.5t-55 -107.5t-37.5 -95t-17.5 -95 q0 -55 28 -56q39 0 117 102.5t148 243.5q39 78 45 86q55 82 122 82q43 0 43 -34q0 -14 -8 -29q-113 -238 -184 -488q184 131 242 201q12 16 34.5 16.5t22.5 -20.5q0 -23 -29 -57q-66 -82 -301 -250q-47 -184 -88 -402q-29 -147 -107.5 -233t-166.5 -86q-76 0 -116 61.5 t-40 145.5zM14 -565q0 -61 21.5 -90t44.5 -29q27 0 42 36t32 113q57 276 73 355q-43 -33 -75 -70q-61 -61 -99.5 -149t-38.5 -166zM203 793q0 41 41 76.5t88 35.5q25 0 44 -14t19 -41q0 -37 -42 -75t-87 -38q-27 0 -45 15.5t-18 40.5zM449 793q0 41 40.5 76.5t88.5 35.5 q25 0 44 -14t19 -41q0 -37 -42 -75t-87 -38q-27 0 -45 15.5t-18 40.5z" />
<glyph unicode="&#x152;" horiz-adv-x="1751" d="M-47 283q0 188 82 384.5t198.5 339t247.5 233.5t230 91q45 0 45 -28q0 -25 -33 -37q-137 -51 -252 -166t-185.5 -255t-108.5 -285.5t-38 -272.5q0 -172 57.5 -261t139.5 -89q127 0 269.5 142t225.5 417q55 180 56 317q0 109 -34 167t-89 58q-78 0 -164 -113.5 t-147 -322.5q-23 -78 -23 -153q0 -94 33 -121q16 -14 16 -31q0 -27 -35 -27q-86 0 -129 62.5t-43 161.5q0 76 25 149q80 236 228.5 370t293.5 134q141 0 205 -127q127 145 299 230t309 85q102 0 171 -64.5t69 -178.5q0 -156 -131 -286t-311 -130q-47 0 -81 12t-36 29 q0 16 41 26q178 41 275 148.5t97 216.5q0 63 -34.5 103t-98.5 40q-78 0 -175 -56t-180 -143t-140.5 -201t-57.5 -216q0 -125 82 -199q141 90 275 90q57 0 91 -22.5t34 -65.5q0 -59 -60.5 -102t-187.5 -43q-72 0 -127 16q-66 -96 -66 -188q0 -139 158 -139q96 0 199 47 q121 57 189.5 112.5t160.5 167.5q20 20 33 21q20 0 20 -31q0 -20 -20 -47q-182 -223 -387 -324q-147 -74 -277 -73q-98 0 -176 59t-78 178q0 143 123 266q-31 18 -63 50q-63 -162 -150.5 -279t-181.5 -173t-175 -81t-161 -25q-164 0 -253 118t-89 315zM1212 383 q47 -18 86 -18q37 0 64 19t27 40q0 31 -35 31q-60 0 -142 -72z" />
<glyph unicode="&#x153;" horiz-adv-x="964" d="M-49 209q0 139 104 262q76 92 111 92q12 0 21.5 -11t9.5 -24q0 -8 -9 -20q-90 -94 -90 -238q0 -66 30 -123t93 -57q41 0 82 32t68 85q-90 16 -133 76.5t-43 136.5q0 82 46 138t119 56q94 0 150 -100q106 100 248 100q72 0 110.5 -37.5t38.5 -93.5q0 -35 -22.5 -80 t-64.5 -92t-118.5 -79.5t-171.5 -34.5q25 -100 142 -101q152 0 293 166q12 16 34 17q25 0 25 -23t-29 -57q-78 -92 -181 -146.5t-204 -54.5q-152 0 -211 117q-119 -115 -256 -115q-90 0 -141 59.5t-51 149.5zM260 444q0 -45 38 -89t101 -62q4 37 4 57q0 66 -20.5 116 t-56.5 50q-47 0 -62 -45q-4 -17 -4 -27zM528 283q80 4 144.5 46t83.5 113q6 25 6 41q0 57 -47 58q-51 0 -111 -71.5t-76 -186.5z" />
<glyph unicode="&#x178;" horiz-adv-x="1017" d="M-109 795q0 98 84 225t218.5 221t261.5 94q201 0 200 -161q0 -57 -22 -115q-45 -121 -135 -302.5t-145.5 -311.5t-55.5 -205q0 -102 70 -103q92 0 234 167t228 417l115 332q14 43 58.5 73.5t82.5 30.5q43 0 43 -37q0 -14 -6 -28q-260 -754 -383 -1108q106 -6 167 -45 t61 -97q0 -35 -27 -79t-59 -44q-29 0 -29 27q0 6 2 19.5t2 19.5q0 104 -141 123l-6 -19q-66 -193 -181.5 -278.5t-230.5 -85.5q-78 0 -128 41t-50 98q0 104 138 187t312 118q37 100 119 340q-227 -309 -399 -309q-78 0 -124 61.5t-46 139.5q0 106 61.5 255.5t156.5 331 t130 273.5q18 53 18 90q0 47 -24.5 72.5t-67.5 25.5q-111 0 -219 -135q-115 -143 -115 -274q0 -53 19.5 -86t48.5 -33q6 0 16.5 2t14.5 2q23 0 22 -20q0 -33 -42 -62t-85 -29q-61 0 -111.5 49.5t-50.5 131.5zM293 -301q0 -29 21.5 -49.5t47.5 -20.5q37 0 75 34t61 95l47 138 q-104 -25 -178 -78t-74 -119zM713 1352q0 41 41 76.5t88 35.5q25 0 44 -14t19 -41q0 -37 -42 -75t-87 -38q-27 0 -45 15.5t-18 40.5zM958 1352q0 41 41 76.5t88 35.5q25 0 44.5 -14t19.5 -41q0 -37 -42 -75t-87 -38q-27 0 -45.5 15.5t-18.5 40.5z" />
<glyph unicode="&#x2c6;" d="M322 1448q0 23 24 43l227 182q31 23 53.5 23t35.5 -27l79 -196q4 -12 4 -17q0 -31 -26 -31q-12 0 -31 19l-102 104l-219 -114q-12 -6 -23 -7q-22 1 -22 21z" />
<glyph unicode="&#x2dc;" d="M352 1487q0 16 10 31q47 76 113 75q33 0 96.5 -40t83.5 -40q27 0 47 25q12 14 31 14q23 0 23 -20q0 -23 -35 -64t-86 -41q-33 0 -96.5 39t-81.5 39q-27 0 -49 -24q-12 -14 -31 -15q-25 1 -25 21z" />
<glyph unicode="&#x2000;" horiz-adv-x="854" />
<glyph unicode="&#x2001;" horiz-adv-x="1708" />
<glyph unicode="&#x2002;" horiz-adv-x="854" />
<glyph unicode="&#x2003;" horiz-adv-x="1708" />
<glyph unicode="&#x2004;" horiz-adv-x="569" />
<glyph unicode="&#x2005;" horiz-adv-x="425" />
<glyph unicode="&#x2006;" horiz-adv-x="284" />
<glyph unicode="&#x2007;" horiz-adv-x="284" />
<glyph unicode="&#x2008;" horiz-adv-x="212" />
<glyph unicode="&#x2009;" horiz-adv-x="339" />
<glyph unicode="&#x200a;" horiz-adv-x="94" />
<glyph unicode="&#x2010;" horiz-adv-x="485" d="M-14 323.5q0 22.5 28.5 49t61.5 26.5h286q31 0 31 -22.5t-29.5 -49t-62.5 -26.5h-285q-30 0 -30 22.5z" />
<glyph unicode="&#x2011;" horiz-adv-x="485" d="M-14 323.5q0 22.5 28.5 49t61.5 26.5h286q31 0 31 -22.5t-29.5 -49t-62.5 -26.5h-285q-30 0 -30 22.5z" />
<glyph unicode="&#x2012;" horiz-adv-x="485" d="M-14 323.5q0 22.5 28.5 49t61.5 26.5h286q31 0 31 -22.5t-29.5 -49t-62.5 -26.5h-285q-30 0 -30 22.5z" />
<glyph unicode="&#x2013;" horiz-adv-x="716" d="M-14 323.5q0 22.5 28.5 49t61.5 26.5h518q31 0 31 -22.5t-30 -49t-63 -26.5h-516q-30 0 -30 22.5z" />
<glyph unicode="&#x2014;" horiz-adv-x="1011" d="M-14 323.5q0 22.5 28.5 49t61.5 26.5h813q31 0 31 -22.5t-30 -49t-63 -26.5h-811q-30 0 -30 22.5z" />
<glyph unicode="&#x2018;" horiz-adv-x="348" d="M272 1112q0 47 36 110.5t122 110.5q8 4 14 4q16 0 17 -14q0 -10 -8 -18q-53 -57 -64 -88q12 4 21 4q33 0 52 -20.5t19 -55.5q0 -43 -37.5 -80t-87.5 -37q-37 0 -60.5 23.5t-23.5 60.5z" />
<glyph unicode="&#x2019;" horiz-adv-x="348" d="M231 1219q0 43 38 79.5t87 36.5q37 0 60.5 -23.5t23.5 -60.5q0 -47 -35.5 -110.5t-121.5 -110.5q-8 -4 -15 -4q-16 0 -16 14q0 10 8 19q53 57 64 88q-12 -4 -21 -4q-33 0 -52.5 20.5t-19.5 55.5z" />
<glyph unicode="&#x201a;" horiz-adv-x="348" d="M-135 76q0 45 37 81t88 36q39 0 61.5 -24t22.5 -63q0 -43 -37 -107.5t-121 -111.5q-12 -4 -14 -4q-16 0 -17 15q0 10 9 18q53 57 63 86q-6 -2 -16 -2q-27 0 -51.5 20.5t-24.5 55.5z" />
<glyph unicode="&#x201c;" horiz-adv-x="626" d="M272 1112q0 47 36 110.5t122 110.5q8 4 14 4q16 0 17 -14q0 -10 -8 -18q-53 -57 -64 -88q12 4 21 4q33 0 52 -20.5t19 -55.5q0 -43 -37.5 -80t-87.5 -37q-37 0 -60.5 23.5t-23.5 60.5zM551 1112q0 47 36 110.5t122 110.5q8 4 14 4q16 0 16 -14q0 -10 -8 -18 q-53 -57 -63 -88q12 4 20 4q33 0 52.5 -20.5t19.5 -55.5q0 -43 -38 -80t-87 -37q-37 0 -60.5 23.5t-23.5 60.5z" />
<glyph unicode="&#x201d;" horiz-adv-x="626" d="M231 1219q0 43 38 79.5t87 36.5q37 0 60.5 -23.5t23.5 -60.5q0 -47 -35.5 -110.5t-121.5 -110.5q-8 -4 -15 -4q-16 0 -16 14q0 10 8 19q53 57 64 88q-12 -4 -21 -4q-33 0 -52.5 20.5t-19.5 55.5zM510 1219q0 43 38 79.5t87 36.5q37 0 60.5 -23.5t23.5 -60.5 q0 -47 -36 -110.5t-122 -110.5q-8 -4 -14 -4q-16 0 -17 14q0 10 9 19q53 57 63 88q-12 -4 -20 -4q-33 0 -52.5 20.5t-19.5 55.5z" />
<glyph unicode="&#x201e;" horiz-adv-x="626" d="M-135 76q0 45 37 81t88 36q39 0 61.5 -24t22.5 -63q0 -43 -37 -107.5t-121 -111.5q-12 -4 -14 -4q-16 0 -17 15q0 10 9 18q53 57 63 86q-6 -2 -16 -2q-27 0 -51.5 20.5t-24.5 55.5zM143 76q0 45 37 81t88 36q39 0 61.5 -24t22.5 -63q0 -43 -36.5 -107.5t-120.5 -111.5 q-12 -4 -15 -4q-16 0 -16 15q0 10 8 18q53 57 64 86q-6 -2 -17 -2q-27 0 -51.5 20.5t-24.5 55.5z" />
<glyph unicode="&#x2022;" horiz-adv-x="462" d="M-18 279q0 55 50 101t109 46q41 0 72 -25.5t31 -68.5q0 -55 -49.5 -101.5t-110.5 -46.5q-43 0 -72.5 27t-29.5 68z" />
<glyph unicode="&#x2026;" horiz-adv-x="1271" d="M43 68q0 51 48 95t110 44q33 0 55.5 -17.5t22.5 -50.5q0 -49 -48.5 -94t-109.5 -45q-33 0 -55.5 18.5t-22.5 49.5zM467 68q0 51 48 95t110 44q33 0 55 -17.5t22 -50.5q0 -49 -48 -94t-109 -45q-33 0 -55.5 18.5t-22.5 49.5zM891 68q0 51 48 95t110 44q33 0 55 -17.5 t22 -50.5q0 -49 -48 -94t-109 -45q-33 0 -55.5 18.5t-22.5 49.5z" />
<glyph unicode="&#x202f;" horiz-adv-x="339" />
<glyph unicode="&#x2039;" horiz-adv-x="536" d="M113 274q0 47 43 80l309 244q12 8 22 8q25 0 25 -22q0 -14 -12 -27l-248 -272l67 -250q4 -16 5 -23q0 -20 -23 -20q-18 0 -33 22l-143 219q-12 18 -12 41z" />
<glyph unicode="&#x203a;" horiz-adv-x="536" d="M-2 10q0 14 12 27l248 272l-68 250q-4 16 -4 23q0 20 23 20q18 0 33 -22l143 -220q12 -18 12 -41q0 -47 -43 -79l-309 -244q-12 -8 -22 -8q-25 -1 -25 22z" />
<glyph unicode="&#x205f;" horiz-adv-x="425" />
<glyph unicode="&#x20ac;" horiz-adv-x="784" d="M-27 536.5q0 18.5 26 39t56 20.5h51q4 25 17 74h-66q-31 0 -30 18q0 20 25.5 40t56.5 20h41q74 172 215 285.5t292 113.5q74 0 123 -33t49 -94q0 -43 -27.5 -72.5t-62.5 -29.5q-16 0 -32.5 8t-16.5 22q0 16 19 29q16 10 16 33q0 29 -27.5 50t-81.5 21q-90 0 -173 -99 t-140 -234h361q31 0 30.5 -18.5t-27 -39t-55.5 -20.5h-340l-10 -41q-4 -8 -8 -33h356q31 0 31 -21q0 -18 -25.5 -37.5t-56.5 -19.5h-317q-4 -27 -4 -80q0 -231 153 -231q66 0 118 44t75 87q14 27 41 27q25 0 24 -23q0 -8 -2 -14q-33 -78 -104.5 -136.5t-173.5 -60.5 q-137 0 -207 90t-70 242q0 37 2 55h-90q-31 0 -31 18.5z" />
<glyph unicode="&#x2122;" horiz-adv-x="1044" d="M203 1139q0 70 58 133t171 63q63 0 147.5 -18.5t102.5 -18.5q27 0 70 25q16 10 34 10q27 0 27 -20q0 -10 -2 -15q-51 -152 -74 -215q63 90 187 217q35 35 63 35q33 0 33 -28q0 -16 -74 -224q78 102 187 217q35 35 65 35q33 0 33 -30q0 -6 -6 -25l-129 -373q-6 -14 -6 -39 q0 -63 34 -88q10 -8 11 -16q0 -16 -17 -16q-31 0 -70.5 38.5t-39.5 98.5q0 20 6 39l88 258q-184 -227 -234 -326l-2 -4q-25 -41 -63 -41q-27 0 -27 25q0 8 2 14q92 264 115 332l-14 -17q-172 -215 -224 -313q-20 -41 -63 -41q-25 0 -25 25q0 8 2 14q125 360 133 383 q-12 -4 -32 -4q-29 0 -78 12l-129 -379q-8 -23 -29.5 -37t-40.5 -14q-25 0 -24 27q0 10 8 30q131 379 137 398q-76 23 -111 22q-16 0 -33.5 -3t-41 -14t-39 -38t-15.5 -68q0 -49 29 -76.5t64 -29.5q27 0 26 -21q0 -35 -71 -34q-53 0 -86 37t-33 98z" />
<glyph unicode="&#xe000;" horiz-adv-x="615" d="M0 615h615v-615h-615v615z" />
<glyph unicode="&#xfb01;" horiz-adv-x="794" d="M-178 -467q0 195 135 703q121 461 305 780t283 319q51 0 51 -98q0 -281 -157.5 -611.5t-323.5 -482.5l-47 -45q-106 -422 -107 -579q0 -86 45 -86q35 0 69 67.5t46 190.5q6 61 6 137q0 102 -16 145q-4 16 -5 21q0 29 33 47q10 6 60.5 37t63.5 40t52 35.5t55.5 43t44 43 t45 53t32.5 57.5q51 106 51 119q0 10 -11 10q-2 0 -9 -2t-11 -2q-25 0 -25 23q0 25 41 55q84 61 170 61q41 0 41 -30q0 -20 -45 -119q-84 -182 -119 -303q-8 -29 -8 -39q0 -29 21 -29q27 0 83 44t126 124q12 16 34.5 16.5t22.5 -20.5q0 -23 -29 -57q-82 -96 -161.5 -148.5 t-135.5 -52.5q-113 0 -112 111q0 20 6 45q-31 -29 -59.5 -50.5t-73.5 -51t-53 -36.5q35 -90 34 -190q0 -190 -110.5 -351t-214.5 -161q-123 0 -123 217zM102 225q145 162 244.5 443.5t99.5 396.5q0 43 -12 43q-35 0 -137.5 -274.5t-194.5 -608.5zM608 807q0 45 40 81t87 36 q35 0 58.5 -20.5t23.5 -55.5q0 -43 -38 -80t-87 -37q-35 0 -59.5 21.5t-24.5 54.5z" />
<glyph unicode="&#xfb02;" horiz-adv-x="905" d="M-178 -467q0 195 135 703q82 311 202 573t222 394t162 132q51 0 51 -98q0 -281 -156.5 -611.5t-322.5 -482.5l-47 -45q-106 -408 -107 -577q0 -88 45 -88q35 0 69 67.5t46 190.5q4 41 4 137q0 109 -14 145q-4 10 -5 25q0 33 33 43q225 74 367 227q2 176 56 375t128 347.5 t151 246.5t124 98t47 -98q0 -193 -114 -473.5t-249 -466.5q6 -188 66 -188q57 0 192 153q12 16 35 16.5t23 -20.5q0 -23 -29 -57q-170 -201 -285 -201q-57 0 -92 48t-47 126q-125 -129 -268 -180q27 -80 26 -166q0 -190 -110.5 -351t-214.5 -161q-55 0 -89 55.5t-34 161.5z M102 225q145 162 244.5 443.5t99.5 396.5q0 43 -12 43q-35 0 -137.5 -274.5t-194.5 -608.5zM651 416q86 160 148.5 369.5t62.5 279.5q0 47 -12 47q-31 0 -93.5 -191.5t-90.5 -379.5q-13 -92 -15 -125z" />
<glyph unicode="&#xfb03;" horiz-adv-x="1275" d="M-178 -467q0 195 135 703q121 461 305 780t283 319q51 0 51 -98q0 -279 -153.5 -604.5t-325.5 -489.5l-49 -47q-104 -414 -105 -575q0 -88 43 -88q12 0 26.5 10t32 39t29.5 70.5t21.5 113.5t9.5 162q0 113 -14 145q-4 10 -5 23q0 31 33 45q35 14 95.5 35.5t101.5 39 t80 38.5l22 82q121 461 304.5 780t281.5 319q51 0 51 -98q0 -276 -172 -631.5t-342 -462.5q-119 -444 -119 -622q0 -88 45 -88q25 0 49.5 32.5t47 127t22.5 233.5q0 98 -16 147q-4 10 -4 21q0 29 32 47q86 51 114 69.5t86.5 61.5t92 85t60.5 93q51 100 51 119q0 10 -8 10 q-2 0 -8.5 -2t-10.5 -2q-29 0 -28 23q0 12 23.5 38.5t76.5 52t113 25.5q39 0 39 -30q0 -25 -29 -90.5t-71 -161.5t-64 -170q-8 -29 -8 -39q0 -29 20 -29q27 0 83 44t126 124q12 16 34.5 16.5t22.5 -20.5q0 -23 -28 -57q-82 -96 -162 -148.5t-135 -52.5q-111 0 -111 113 q0 10 4 43q-31 -29 -59.5 -50.5t-73.5 -51t-53 -36.5q35 -90 35 -190q0 -190 -111 -351t-215 -161q-123 0 -123 217q0 172 92 526q-80 -43 -153 -63q31 -90 30 -178q0 -188 -109.5 -345t-213.5 -157q-125 0 -125 217zM104 229q156 176 249 455t93 381q0 41 -12 41 q-33 0 -134.5 -271.5t-195.5 -605.5zM590 250q106 94 190 293.5t115 341t31 180.5q0 43 -13 43q-35 0 -134 -264t-189 -594zM1090 807q0 45 37.5 81t89.5 36q37 0 59 -20.5t22 -55.5q0 -43 -37.5 -80t-89.5 -37q-35 0 -58 21.5t-23 54.5z" />
<glyph unicode="&#xfb04;" horiz-adv-x="1386" d="M-180 -467q0 186 137 703q121 461 304 780t282 319q51 0 51 -98q0 -279 -153.5 -604.5t-325.5 -489.5l-47 -45q-106 -412 -107 -577q0 -88 45 -88q29 0 55.5 41t45 133t18.5 219q0 102 -16 147q-4 10 -5 23q0 31 33 45q35 14 95.5 35.5t102.5 39t81 38.5l22 82 q121 461 304.5 780t281.5 319q51 0 51 -98q0 -166 -75.5 -390t-196.5 -420t-242 -280q-119 -444 -119 -626q0 -88 43 -88q27 0 52.5 33.5t46 128t20.5 233.5q0 111 -14 145q-4 10 -4 25q0 33 32 43q225 72 369 229q2 176 56.5 375t129 346.5t150.5 245.5t123 98q45 0 45 -98 q0 -193 -113.5 -473.5t-247.5 -468.5q6 -186 64 -186q59 0 192 153q12 16 35 16.5t23 -20.5q0 -23 -29 -57q-170 -201 -285 -201q-113 0 -137 174q-123 -127 -270 -182q27 -80 27 -164q0 -190 -111 -351t-215 -161q-123 0 -123 217q0 174 92 528q-84 -45 -155 -65 q31 -90 30 -178q0 -188 -109.5 -345t-213.5 -157q-125 0 -125 217zM102 227q156 176 249 456t93 382q0 41 -12 41q-33 0 -134.5 -271.5t-195.5 -607.5zM590 254q137 141 236.5 421.5t99.5 389.5q0 43 -13 43q-35 0 -134 -263t-189 -591zM1133 414q84 160 146 370.5t62 280.5 q0 47 -12 47q-31 0 -93 -191.5t-91 -379.5q-8 -68 -12 -127z" />
</font>
</defs>
</svg>
